<svg width="224" height="73" viewBox="0 0 224 73" fill="none" xmlns="http://www.w3.org/2000/svg">
<path d="M9 65.3C7.6 65.3 6.34 65.13 5.22 64.79C4.1 64.43 3.03 63.81 2.01 62.93C1.75 62.71 1.55 62.46 1.41 62.18C1.27 61.9 1.2 61.62 1.2 61.34C1.2 60.88 1.36 60.48 1.68 60.14C2.02 59.78 2.44 59.6 2.94 59.6C3.32 59.6 3.66 59.72 3.96 59.96C4.72 60.58 5.47 61.05 6.21 61.37C6.97 61.69 7.9 61.85 9 61.85C9.74 61.85 10.42 61.74 11.04 61.52C11.66 61.28 12.16 60.97 12.54 60.59C12.92 60.19 13.11 59.74 13.11 59.24C13.11 58.64 12.93 58.13 12.57 57.71C12.21 57.29 11.66 56.94 10.92 56.66C10.18 56.36 9.24 56.13 8.1 55.97C7.02 55.81 6.07 55.57 5.25 55.25C4.43 54.91 3.74 54.49 3.18 53.99C2.64 53.47 2.23 52.87 1.95 52.19C1.67 51.49 1.53 50.71 1.53 49.85C1.53 48.55 1.86 47.44 2.52 46.52C3.2 45.6 4.11 44.9 5.25 44.42C6.39 43.94 7.65 43.7 9.03 43.7C10.33 43.7 11.53 43.9 12.63 44.3C13.75 44.68 14.66 45.17 15.36 45.77C15.94 46.23 16.23 46.76 16.23 47.36C16.23 47.8 16.06 48.2 15.72 48.56C15.38 48.92 14.98 49.1 14.52 49.1C14.22 49.1 13.95 49.01 13.71 48.83C13.39 48.55 12.96 48.29 12.42 48.05C11.88 47.79 11.31 47.58 10.71 47.42C10.11 47.24 9.55 47.15 9.03 47.15C8.17 47.15 7.44 47.26 6.84 47.48C6.26 47.7 5.82 48 5.52 48.38C5.22 48.76 5.07 49.2 5.07 49.7C5.07 50.3 5.24 50.8 5.58 51.2C5.94 51.58 6.45 51.89 7.11 52.13C7.77 52.35 8.56 52.55 9.48 52.73C10.68 52.95 11.73 53.21 12.63 53.51C13.55 53.81 14.31 54.2 14.91 54.68C15.51 55.14 15.96 55.73 16.26 56.45C16.56 57.15 16.71 58.01 16.71 59.03C16.71 60.33 16.35 61.45 15.63 62.39C14.91 63.33 13.96 64.05 12.78 64.55C11.62 65.05 10.36 65.3 9 65.3ZM32.0404 43.97C32.3204 43.97 32.6104 44.05 32.9104 44.21C33.2304 44.35 33.4704 44.54 33.6304 44.78L40.9204 56L39.4204 55.94L46.8904 44.78C47.2704 44.24 47.7604 43.97 48.3604 43.97C48.8404 43.97 49.2704 44.14 49.6504 44.48C50.0304 44.82 50.2204 45.26 50.2204 45.8V63.17C50.2204 63.69 50.0504 64.13 49.7104 64.49C49.3704 64.83 48.9204 65 48.3604 65C47.8004 65 47.3404 64.83 46.9804 64.49C46.6404 64.13 46.4704 63.69 46.4704 63.17V49.04L47.6404 49.31L41.5204 58.64C41.3404 58.86 41.1104 59.05 40.8304 59.21C40.5704 59.37 40.3004 59.44 40.0204 59.42C39.7604 59.44 39.4904 59.37 39.2104 59.21C38.9504 59.05 38.7304 58.86 38.5504 58.64L32.8204 49.58L33.6004 47.99V63.17C33.6004 63.69 33.4404 64.13 33.1204 64.49C32.8004 64.83 32.3804 65 31.8604 65C31.3604 65 30.9504 64.83 30.6304 64.49C30.3104 64.13 30.1504 63.69 30.1504 63.17V45.8C30.1504 45.3 30.3304 44.87 30.6904 44.51C31.0704 44.15 31.5204 43.97 32.0404 43.97ZM84.0505 54.5C84.0505 56 83.8005 57.4 83.3005 58.7C82.8005 60 82.0905 61.15 81.1705 62.15C80.2705 63.13 79.1905 63.9 77.9305 64.46C76.6905 65.02 75.3305 65.3 73.8505 65.3C72.3705 65.3 71.0105 65.02 69.7705 64.46C68.5305 63.9 67.4505 63.13 66.5305 62.15C65.6305 61.15 64.9305 60 64.4305 58.7C63.9305 57.4 63.6805 56 63.6805 54.5C63.6805 53 63.9305 51.6 64.4305 50.3C64.9305 49 65.6305 47.86 66.5305 46.88C67.4505 45.88 68.5305 45.1 69.7705 44.54C71.0105 43.98 72.3705 43.7 73.8505 43.7C75.3305 43.7 76.6905 43.98 77.9305 44.54C79.1905 45.1 80.2705 45.88 81.1705 46.88C82.0905 47.86 82.8005 49 83.3005 50.3C83.8005 51.6 84.0505 53 84.0505 54.5ZM80.1505 54.5C80.1505 53.16 79.8805 51.95 79.3405 50.87C78.8005 49.77 78.0605 48.9 77.1205 48.26C76.1805 47.62 75.0905 47.3 73.8505 47.3C72.6105 47.3 71.5205 47.62 70.5805 48.26C69.6405 48.9 68.9005 49.76 68.3605 50.84C67.8405 51.92 67.5805 53.14 67.5805 54.5C67.5805 55.84 67.8405 57.06 68.3605 58.16C68.9005 59.24 69.6405 60.1 70.5805 60.74C71.5205 61.38 72.6105 61.7 73.8505 61.7C75.0905 61.7 76.1805 61.38 77.1205 60.74C78.0605 60.1 78.8005 59.24 79.3405 58.16C79.8805 57.06 80.1505 55.84 80.1505 54.5ZM116.814 54.5C116.814 56 116.564 57.4 116.064 58.7C115.564 60 114.854 61.15 113.934 62.15C113.034 63.13 111.954 63.9 110.694 64.46C109.454 65.02 108.094 65.3 106.614 65.3C105.134 65.3 103.774 65.02 102.534 64.46C101.294 63.9 100.214 63.13 99.2941 62.15C98.3941 61.15 97.6941 60 97.1941 58.7C96.6941 57.4 96.4441 56 96.4441 54.5C96.4441 53 96.6941 51.6 97.1941 50.3C97.6941 49 98.3941 47.86 99.2941 46.88C100.214 45.88 101.294 45.1 102.534 44.54C103.774 43.98 105.134 43.7 106.614 43.7C108.094 43.7 109.454 43.98 110.694 44.54C111.954 45.1 113.034 45.88 113.934 46.88C114.854 47.86 115.564 49 116.064 50.3C116.564 51.6 116.814 53 116.814 54.5ZM112.914 54.5C112.914 53.16 112.644 51.95 112.104 50.87C111.564 49.77 110.824 48.9 109.884 48.26C108.944 47.62 107.854 47.3 106.614 47.3C105.374 47.3 104.284 47.62 103.344 48.26C102.404 48.9 101.664 49.76 101.124 50.84C100.604 51.92 100.344 53.14 100.344 54.5C100.344 55.84 100.604 57.06 101.124 58.16C101.664 59.24 102.404 60.1 103.344 60.74C104.284 61.38 105.374 61.7 106.614 61.7C107.854 61.7 108.944 61.38 109.884 60.74C110.824 60.1 111.564 59.24 112.104 58.16C112.644 57.06 112.914 55.84 112.914 54.5ZM136.782 65C136.222 65 135.762 64.83 135.402 64.49C135.042 64.13 134.862 63.69 134.862 63.17V45.77H138.762V63.17C138.762 63.69 138.572 64.13 138.192 64.49C137.832 64.83 137.362 65 136.782 65ZM130.152 47.45C129.632 47.45 129.192 47.29 128.832 46.97C128.492 46.65 128.322 46.23 128.322 45.71C128.322 45.19 128.492 44.78 128.832 44.48C129.192 44.16 129.632 44 130.152 44H143.472C143.992 44 144.422 44.16 144.762 44.48C145.122 44.8 145.302 45.22 145.302 45.74C145.302 46.26 145.122 46.68 144.762 47C144.422 47.3 143.992 47.45 143.472 47.45H130.152ZM160.371 44C160.851 44 161.271 44.18 161.631 44.54C162.011 44.88 162.201 45.31 162.201 45.83V63.17C162.201 63.69 162.011 64.13 161.631 64.49C161.251 64.83 160.811 65 160.311 65C159.751 65 159.301 64.83 158.961 64.49C158.621 64.13 158.451 63.69 158.451 63.17V45.83C158.451 45.31 158.631 44.88 158.991 44.54C159.351 44.18 159.811 44 160.371 44ZM173.661 44C174.221 44 174.671 44.18 175.011 44.54C175.351 44.88 175.521 45.31 175.521 45.83V63.17C175.521 63.69 175.341 64.13 174.981 64.49C174.641 64.83 174.181 65 173.601 65C173.121 65 172.691 64.83 172.311 64.49C171.951 64.13 171.771 63.69 171.771 63.17V45.83C171.771 45.31 171.961 44.88 172.341 44.54C172.721 44.18 173.161 44 173.661 44ZM160.281 52.73H173.661V56.18H160.281V52.73ZM193.764 63.17C193.764 63.69 193.574 64.13 193.194 64.49C192.814 64.83 192.374 65 191.874 65C191.314 65 190.864 64.83 190.524 64.49C190.184 64.13 190.014 63.69 190.014 63.17V45.83C190.014 45.31 190.194 44.88 190.554 44.54C190.914 44.18 191.374 44 191.934 44C192.414 44 192.834 44.18 193.194 44.54C193.574 44.88 193.764 45.31 193.764 45.83V63.17ZM210.105 44H220.155C220.675 44 221.105 44.17 221.445 44.51C221.805 44.83 221.985 45.25 221.985 45.77C221.985 46.27 221.805 46.68 221.445 47C221.105 47.3 220.675 47.45 220.155 47.45H211.755L212.025 46.94V52.79L211.785 52.55H218.805C219.325 52.55 219.755 52.72 220.095 53.06C220.455 53.38 220.635 53.8 220.635 54.32C220.635 54.82 220.455 55.23 220.095 55.55C219.755 55.85 219.325 56 218.805 56H211.875L212.025 55.76V61.82L211.785 61.55H220.155C220.675 61.55 221.105 61.73 221.445 62.09C221.805 62.43 221.985 62.83 221.985 63.29C221.985 63.79 221.805 64.2 221.445 64.52C221.105 64.84 220.675 65 220.155 65H210.105C209.585 65 209.145 64.83 208.785 64.49C208.445 64.13 208.275 63.69 208.275 63.17V45.83C208.275 45.31 208.445 44.88 208.785 44.54C209.145 44.18 209.585 44 210.105 44Z" fill="white"/>
<path d="M5.22 64.79L4.60798 66.6941L4.62347 66.699L4.63904 66.7038L5.22 64.79ZM2.01 62.93L3.31647 61.4157L3.30921 61.4094L3.30188 61.4032L2.01 62.93ZM1.68 60.14L0.225972 58.7668L0.2236 58.7693L1.68 60.14ZM3.96 59.96L5.22425 58.4103L5.21685 58.4042L5.20939 58.3983L3.96 59.96ZM6.21 61.37L5.41618 63.2057L5.42501 63.2095L5.43389 63.2133L6.21 61.37ZM11.04 61.52L11.7088 63.4049L11.7355 63.3954L11.762 63.3851L11.04 61.52ZM12.54 60.59L13.9542 62.0042L13.9723 61.9861L13.99 61.9675L12.54 60.59ZM12.57 57.71L14.0885 56.4084L14.0885 56.4084L12.57 57.71ZM10.92 56.66L10.1686 58.5135L10.1903 58.5223L10.2122 58.5306L10.92 56.66ZM8.1 55.97L7.8069 57.9484L7.81446 57.9495L7.82202 57.9506L8.1 55.97ZM5.25 55.25L4.48397 57.0975L4.50336 57.1055L4.52292 57.1132L5.25 55.25ZM3.18 53.99L1.79272 55.4306L1.81986 55.4568L1.84797 55.4819L3.18 53.99ZM1.95 52.19L0.0930468 52.9328L0.0967981 52.9422L0.100644 52.9515L1.95 52.19ZM2.52 46.52L0.911648 45.3312L0.903204 45.3426L0.894924 45.3542L2.52 46.52ZM5.25 44.42L6.02611 46.2633L6.02611 46.2633L5.25 44.42ZM12.63 44.3L11.9465 46.1796L11.9669 46.187L11.9874 46.194L12.63 44.3ZM15.36 45.77L14.0584 47.2885L14.0874 47.3133L14.1172 47.337L15.36 45.77ZM15.72 48.56L17.174 49.9332L17.174 49.9332L15.72 48.56ZM13.71 48.83L12.393 50.3352L12.4497 50.3848L12.51 50.43L13.71 48.83ZM12.42 48.05L11.5524 49.852L11.5799 49.8652L11.6077 49.8776L12.42 48.05ZM10.71 47.42L10.1353 49.3357L10.1649 49.3445L10.1947 49.3525L10.71 47.42ZM6.84 47.48L6.15149 45.6022L6.14107 45.6061L6.13069 45.61L6.84 47.48ZM5.58 51.2L4.05612 52.4953L4.09103 52.5364L4.1281 52.5755L5.58 51.2ZM7.11 52.13L6.42651 54.0096L6.45191 54.0188L6.47754 54.0274L7.11 52.13ZM9.48 52.73L9.09598 54.6928L9.10765 54.6951L9.11935 54.6972L9.48 52.73ZM12.63 53.51L11.9975 55.4074L12.01 55.4115L12.63 53.51ZM14.91 54.68L13.6606 56.2417L13.6767 56.2546L13.6931 56.2672L14.91 54.68ZM16.26 56.45L14.4138 57.2192L14.4177 57.2286L14.4217 57.2378L16.26 56.45ZM15.63 62.39L14.0422 61.1738L14.0422 61.1738L15.63 62.39ZM12.78 64.55L11.9997 62.7085L11.9883 62.7134L12.78 64.55ZM9 63.3C7.75952 63.3 6.69994 63.1491 5.80096 62.8762L4.63904 66.7038C5.98006 67.1109 7.44048 67.3 9 67.3V63.3ZM5.83202 62.8859C5.00168 62.619 4.16272 62.1458 3.31647 61.4157L0.703534 64.4443C1.89728 65.4742 3.19832 66.241 4.60798 66.6941L5.83202 62.8859ZM3.30188 61.4032C3.2303 61.3427 3.20742 61.3027 3.19885 61.2856L-0.378854 63.0744C-0.107419 63.6173 0.269699 64.0773 0.718116 64.4568L3.30188 61.4032ZM3.19885 61.2856C3.18866 61.2652 3.18955 61.262 3.19279 61.2749C3.19622 61.2887 3.2 61.3115 3.2 61.34H-0.8C-0.8 61.9655 -0.641142 62.5499 -0.378854 63.0744L3.19885 61.2856ZM3.2 61.34C3.2 61.347 3.19771 61.3859 3.17695 61.4378C3.15641 61.4891 3.1336 61.5137 3.1364 61.5107L0.2236 58.7693C-0.439742 59.4741 -0.8 60.3621 -0.8 61.34H3.2ZM3.13403 61.5132C3.13469 61.5125 3.12652 61.5212 3.10841 61.5341C3.08997 61.5472 3.06601 61.5612 3.03784 61.5733C2.9763 61.5997 2.93515 61.6 2.94 61.6V57.6C1.89582 57.6 0.947949 58.0023 0.225974 58.7668L3.13403 61.5132ZM2.94 61.6C2.91559 61.6 2.8695 61.5954 2.81436 61.576C2.7595 61.5566 2.72412 61.5325 2.71061 61.5217L5.20939 58.3983C4.55902 57.878 3.77956 57.6 2.94 57.6V61.6ZM2.69575 61.5097C3.56892 62.2221 4.47503 62.7987 5.41618 63.2057L7.00382 59.5343C6.46497 59.3013 5.87108 58.9379 5.22425 58.4103L2.69575 61.5097ZM5.43389 63.2133C6.5068 63.665 7.71763 63.85 9 63.85V59.85C8.08237 59.85 7.4332 59.715 6.98611 59.5267L5.43389 63.2133ZM9 63.85C9.9397 63.85 10.849 63.7099 11.7088 63.4049L10.3712 59.6351C9.99097 59.7701 9.5403 59.85 9 59.85V63.85ZM11.762 63.3851C12.5817 63.0678 13.3365 62.6219 13.9542 62.0042L11.1258 59.1758C10.9835 59.3181 10.7383 59.4922 10.318 59.6549L11.762 63.3851ZM13.99 61.9675C14.6833 61.2377 15.11 60.3077 15.11 59.24H11.11C11.11 59.2375 11.1103 59.2279 11.1132 59.2134C11.1161 59.1988 11.1205 59.1852 11.125 59.1746C11.1294 59.1641 11.1319 59.1614 11.1283 59.1667C11.1245 59.1724 11.1133 59.188 11.09 59.2125L13.99 61.9675ZM15.11 59.24C15.11 58.2062 14.7864 57.2227 14.0885 56.4084L11.0515 59.0116C11.0736 59.0373 11.11 59.0738 11.11 59.24H15.11ZM14.0885 56.4084C13.4364 55.6477 12.5548 55.1402 11.6278 54.7894L10.2122 58.5306C10.7652 58.7398 10.9836 58.9323 11.0515 59.0116L14.0885 56.4084ZM11.6714 54.8065C10.7288 54.4244 9.61561 54.1631 8.37798 53.9894L7.82202 57.9506C8.86439 58.0969 9.63117 58.2956 10.1686 58.5135L11.6714 54.8065ZM8.3931 53.9916C7.42773 53.8486 6.62854 53.6411 5.97709 53.3868L4.52292 57.1132C5.51147 57.4989 6.61227 57.7714 7.8069 57.9484L8.3931 53.9916ZM6.01603 53.4025C5.36644 53.1332 4.87726 52.8242 4.51203 52.4981L1.84797 55.4819C2.60274 56.1558 3.49357 56.6868 4.48397 57.0975L6.01603 53.4025ZM4.56728 52.5494C4.22266 52.2175 3.9719 51.8475 3.79936 51.4285L0.100644 52.9515C0.488102 53.8925 1.05734 54.7225 1.79272 55.4306L4.56728 52.5494ZM3.80695 51.4472C3.6338 51.0143 3.53 50.4911 3.53 49.85H-0.47C-0.47 50.9289 -0.293795 51.9657 0.0930468 52.9328L3.80695 51.4472ZM3.53 49.85C3.53 48.904 3.76384 48.2172 4.14508 47.6858L0.894924 45.3542C-0.0438351 46.6628 -0.47 48.196 -0.47 49.85H3.53ZM4.12835 47.7088C4.57751 47.1011 5.18946 46.6155 6.02611 46.2633L4.47389 42.5767C3.03054 43.1845 1.82249 44.0989 0.911648 45.3312L4.12835 47.7088ZM6.02611 46.2633C6.89352 45.898 7.88571 45.7 9.03 45.7V41.7C7.41429 41.7 5.88648 41.9819 4.47389 42.5767L6.02611 46.2633ZM9.03 45.7C10.1226 45.7 11.0885 45.8676 11.9465 46.1796L13.3135 42.4204C11.9715 41.9324 10.5374 41.7 9.03 41.7V45.7ZM11.9874 46.194C12.9311 46.5141 13.5984 46.8942 14.0584 47.2885L16.6616 44.2515C15.7216 43.4458 14.5689 42.8458 13.2726 42.406L11.9874 46.194ZM14.1172 47.337C14.2437 47.4373 14.2667 47.4885 14.258 47.4725C14.2534 47.4642 14.245 47.446 14.2384 47.4203C14.2318 47.3945 14.23 47.3729 14.23 47.36H18.23C18.23 46.0077 17.5378 44.9446 16.6028 44.203L14.1172 47.337ZM14.23 47.36C14.23 47.3403 14.232 47.3148 14.2379 47.2858C14.2438 47.2567 14.2523 47.2301 14.2618 47.2077C14.2816 47.1612 14.2955 47.1555 14.266 47.1868L17.174 49.9332C17.8171 49.2524 18.23 48.376 18.23 47.36H14.23ZM14.266 47.1868C14.2525 47.201 14.2769 47.1715 14.3443 47.1412C14.4148 47.1094 14.4811 47.1 14.52 47.1V51.1C15.5755 51.1 16.4884 50.6592 17.174 49.9332L14.266 47.1868ZM14.52 47.1C14.5733 47.1 14.6452 47.1086 14.725 47.1351C14.8047 47.1617 14.8674 47.198 14.91 47.23L12.51 50.43C13.0962 50.8696 13.7873 51.1 14.52 51.1V47.1ZM15.027 47.3248C14.5099 46.8724 13.8899 46.5147 13.2323 46.2224L11.6077 49.8776C12.0301 50.0653 12.2701 50.2276 12.393 50.3352L15.027 47.3248ZM13.2876 46.248C12.6306 45.9316 11.9422 45.6787 11.2253 45.4875L10.1947 49.3525C10.6778 49.4813 11.1295 49.6484 11.5524 49.852L13.2876 46.248ZM11.2847 45.5043C10.5351 45.2795 9.77966 45.15 9.03 45.15V49.15C9.32034 49.15 9.68494 49.2005 10.1353 49.3357L11.2847 45.5043ZM9.03 45.15C8.01117 45.15 7.03365 45.2788 6.15149 45.6022L7.52851 49.3578C7.84635 49.2412 8.32883 49.15 9.03 49.15V45.15ZM6.13069 45.61C5.30571 45.9229 4.52952 46.407 3.95024 47.1407L7.08977 49.6193C7.11048 49.593 7.21429 49.4771 7.54931 49.35L6.13069 45.61ZM3.95024 47.1407C3.36187 47.886 3.07 48.7662 3.07 49.7H7.07C7.07 49.6753 7.07183 49.6596 7.07314 49.6514C7.07381 49.6472 7.07443 49.6444 7.07482 49.6429C7.0752 49.6413 7.07546 49.6405 7.07552 49.6403C7.07558 49.6402 7.0756 49.6401 7.07562 49.6401C7.07564 49.64 7.07587 49.6395 7.07646 49.6384C7.07747 49.6366 7.08112 49.6302 7.08977 49.6193L3.95024 47.1407ZM3.07 49.7C3.07 50.7026 3.36517 51.6824 4.05612 52.4953L7.10388 49.9047C7.09803 49.8978 7.09545 49.8941 7.09105 49.8812C7.08541 49.8646 7.07 49.8104 7.07 49.7H3.07ZM4.1281 52.5755C4.76177 53.2444 5.56982 53.6981 6.42651 54.0096L7.79349 50.2504C7.33018 50.0819 7.11823 49.9156 7.03191 49.8245L4.1281 52.5755ZM6.47754 54.0274C7.24123 54.2819 8.11868 54.5016 9.09598 54.6928L9.86402 50.7672C9.00132 50.5984 8.29877 50.4181 7.74246 50.2326L6.47754 54.0274ZM9.11935 54.6972C10.2518 54.9048 11.2073 55.144 11.9975 55.4074L13.2625 51.6126C12.2527 51.276 11.1082 50.9952 9.84066 50.7628L9.11935 54.6972ZM12.01 55.4115C12.7583 55.6555 13.2899 55.9452 13.6606 56.2417L16.1594 53.1183C15.3301 52.4548 14.3417 51.9645 13.25 51.6085L12.01 55.4115ZM13.6931 56.2672C14.0064 56.5074 14.244 56.8116 14.4138 57.2192L18.1062 55.6808C17.676 54.6484 17.0136 53.7726 16.1269 53.0928L13.6931 56.2672ZM14.4217 57.2378C14.5854 57.6198 14.71 58.194 14.71 59.03H18.71C18.71 57.826 18.5346 56.6802 18.0983 55.6622L14.4217 57.2378ZM14.71 59.03C14.71 59.9359 14.4684 60.6174 14.0422 61.1738L17.2178 63.6062C18.2316 62.2826 18.71 60.7241 18.71 59.03H14.71ZM14.0422 61.1738C13.5499 61.8166 12.888 62.3321 11.9997 62.7085L13.5603 66.3915C15.032 65.7679 16.2701 64.8434 17.2178 63.6062L14.0422 61.1738ZM11.9883 62.7134C11.0971 63.0975 10.1089 63.3 9 63.3V67.3C10.6111 67.3 12.1429 67.0025 13.5717 66.3866L11.9883 62.7134ZM32.9104 44.21L31.9692 45.9747L32.0377 46.0112L32.1088 46.0423L32.9104 44.21ZM33.6304 44.78L35.3075 43.6903L35.301 43.6804L35.2945 43.6706L33.6304 44.78ZM40.9204 56L40.8405 57.9984L44.7043 58.153L42.5975 54.9103L40.9204 56ZM39.4204 55.94L37.7584 54.8275L35.7716 57.7956L39.3405 57.9384L39.4204 55.94ZM46.8904 44.78L45.2548 43.629L45.2413 43.6481L45.2284 43.6675L46.8904 44.78ZM49.6504 44.48L48.3168 45.9705L48.3168 45.9705L49.6504 44.48ZM49.7104 64.49L51.1246 65.9042L51.1448 65.884L51.1644 65.8632L49.7104 64.49ZM46.9804 64.49L45.5264 65.8632L45.5656 65.9048L45.6071 65.944L46.9804 64.49ZM46.4704 49.04L46.9201 47.0912L44.4704 46.5259V49.04H46.4704ZM47.6404 49.31L49.3127 50.407L50.8872 48.0067L48.0901 47.3612L47.6404 49.31ZM41.5204 58.64L43.0683 59.9065L43.135 59.825L43.1927 59.737L41.5204 58.64ZM40.8304 59.21L39.8381 57.4735L39.8099 57.4896L39.7822 57.5067L40.8304 59.21ZM40.0204 59.42L40.1629 57.4251L40.0149 57.4145L39.867 57.4259L40.0204 59.42ZM39.2104 59.21L38.1622 60.9133L38.1899 60.9304L38.2181 60.9465L39.2104 59.21ZM38.5504 58.64L36.8601 59.709L36.9253 59.8121L37.0025 59.9065L38.5504 58.64ZM32.8204 49.58L31.0248 48.6992L30.5321 49.7035L31.1301 50.649L32.8204 49.58ZM33.6004 47.99H35.6004L31.8048 47.1091L33.6004 47.99ZM33.1204 64.49L34.5768 65.8607L34.5963 65.84L34.6152 65.8187L33.1204 64.49ZM30.6304 64.49L29.1356 65.8187L29.1545 65.84L29.174 65.8607L30.6304 64.49ZM30.6904 44.51L29.3149 43.0581L29.2953 43.0767L29.2762 43.0958L30.6904 44.51ZM32.0404 45.97C31.9878 45.97 31.9515 45.9622 31.936 45.958C31.922 45.9541 31.9327 45.9552 31.9692 45.9747L33.8516 42.4453C33.3234 42.1636 32.7119 41.97 32.0404 41.97V45.97ZM32.1088 46.0423C32.1331 46.053 32.121 46.0509 32.089 46.0256C32.055 45.9987 32.0092 45.9538 31.9663 45.8894L35.2945 43.6706C34.8811 43.0505 34.3082 42.6385 33.712 42.3777L32.1088 46.0423ZM31.9533 45.8697L39.2433 57.0897L42.5975 54.9103L35.3075 43.6903L31.9533 45.8697ZM41.0003 54.0016L39.5003 53.9416L39.3405 57.9384L40.8405 57.9984L41.0003 54.0016ZM41.0824 57.0525L48.5524 45.8925L45.2284 43.6675L37.7584 54.8275L41.0824 57.0525ZM48.526 45.931C48.5724 45.8651 48.5732 45.8883 48.5081 45.9242C48.4775 45.941 48.444 45.954 48.4119 45.962C48.3967 45.9657 48.384 45.9678 48.3747 45.9689C48.3702 45.9694 48.3666 45.9697 48.3641 45.9699C48.3629 45.9699 48.362 45.97 48.3613 45.97C48.361 45.97 48.3608 45.97 48.3606 45.97C48.3606 45.97 48.3605 45.97 48.3605 45.97C48.3604 45.97 48.3604 45.97 48.3604 45.97C48.3604 45.97 48.3604 45.97 48.3604 45.97V41.97C47.0367 41.97 45.9654 42.6192 45.2548 43.629L48.526 45.931ZM48.3604 45.97C48.3617 45.97 48.3555 45.9701 48.3437 45.9679C48.3318 45.9656 48.3192 45.962 48.3076 45.9574C48.2961 45.9529 48.2902 45.9492 48.2904 45.9493C48.2909 45.9496 48.2999 45.9554 48.3168 45.9705L50.984 42.9895C50.2622 42.3437 49.3649 41.97 48.3604 41.97V45.97ZM48.3168 45.9705C48.3132 45.9673 48.3008 45.9554 48.285 45.9338C48.2689 45.9118 48.2538 45.8859 48.2418 45.8579C48.2158 45.7976 48.2204 45.7682 48.2204 45.8H52.2204C52.2204 44.729 51.8155 43.7335 50.984 42.9895L48.3168 45.9705ZM48.2204 45.8V63.17H52.2204V45.8H48.2204ZM48.2204 63.17C48.2204 63.1908 48.2187 63.1987 48.2192 63.1963C48.2197 63.1934 48.2218 63.1835 48.2273 63.1692C48.2329 63.1547 48.2399 63.1411 48.2471 63.1299C48.2541 63.1188 48.2584 63.1146 48.2564 63.1168L51.1644 65.8632C51.874 65.112 52.2204 64.1724 52.2204 63.17H48.2204ZM48.2962 63.0758C48.309 63.063 48.3272 63.0476 48.35 63.0328C48.3729 63.0181 48.3943 63.0079 48.4111 63.0016C48.4458 62.9885 48.4379 63 48.3604 63V67C49.3565 67 50.3477 66.6811 51.1246 65.9042L48.2962 63.0758ZM48.3604 63C48.3215 63 48.2982 62.9971 48.2879 62.9953C48.278 62.9937 48.2793 62.993 48.2887 62.9965C48.2984 63.0001 48.3114 63.0061 48.3254 63.0148C48.3393 63.0235 48.3489 63.0315 48.3536 63.036L45.6071 65.944C46.3878 66.6813 47.3619 67 48.3604 67V63ZM48.4344 63.1168C48.4323 63.1146 48.4367 63.1188 48.4437 63.1299C48.4509 63.1411 48.4579 63.1547 48.4635 63.1692C48.469 63.1835 48.4711 63.1934 48.4716 63.1963C48.4721 63.1987 48.4704 63.1908 48.4704 63.17H44.4704C44.4704 64.1724 44.8168 65.112 45.5264 65.8632L48.4344 63.1168ZM48.4704 63.17V49.04H44.4704V63.17H48.4704ZM46.0207 50.9888L47.1907 51.2588L48.0901 47.3612L46.9201 47.0912L46.0207 50.9888ZM45.9681 48.213L39.8481 57.543L43.1927 59.737L49.3127 50.407L45.9681 48.213ZM39.9725 57.3735C39.9668 57.3805 39.934 57.4187 39.8381 57.4735L41.8227 60.9465C42.2867 60.6813 42.714 60.3395 43.0683 59.9065L39.9725 57.3735ZM39.7822 57.5067C39.8058 57.4922 39.856 57.4659 39.931 57.4465C40.0075 57.4267 40.0877 57.4197 40.1629 57.4251L39.8779 61.4149C40.6125 61.4674 41.2949 61.2725 41.8786 60.9133L39.7822 57.5067ZM39.867 57.4259C39.972 57.4178 40.061 57.43 40.1248 57.4465C40.1857 57.4623 40.2122 57.479 40.2027 57.4735L38.2181 60.9465C38.7628 61.2577 39.4292 61.4714 40.1738 61.4141L39.867 57.4259ZM40.2586 57.5067C40.1743 57.4548 40.1271 57.4088 40.0983 57.3735L37.0025 59.9065C37.3337 60.3112 37.7265 60.6452 38.1622 60.9133L40.2586 57.5067ZM40.2407 57.571L34.5107 48.511L31.1301 50.649L36.8601 59.709L40.2407 57.571ZM34.616 50.4608L35.396 48.8708L31.8048 47.1091L31.0248 48.6992L34.616 50.4608ZM31.6004 47.99V63.17H35.6004V47.99H31.6004ZM31.6004 63.17C31.6004 63.1973 31.5983 63.212 31.5976 63.2162C31.597 63.2201 31.5973 63.2161 31.6008 63.2065C31.6043 63.1968 31.6094 63.1861 31.6154 63.176C31.6214 63.1661 31.6257 63.1611 31.6256 63.1613L34.6152 65.8187C35.2877 65.0622 35.6004 64.1375 35.6004 63.17H31.6004ZM31.664 63.1193C31.6773 63.1052 31.6981 63.086 31.7267 63.0663C31.7554 63.0465 31.7858 63.0304 31.815 63.0186C31.876 62.9939 31.9008 63 31.8604 63V67C32.8625 67 33.8338 66.6501 34.5768 65.8607L31.664 63.1193ZM31.8604 63C31.8401 63 31.8772 62.9974 31.9439 63.025C32.0137 63.0539 32.0632 63.0943 32.0868 63.1193L29.174 65.8607C29.9009 66.633 30.8526 67 31.8604 67V63ZM32.1252 63.1613C32.1251 63.1611 32.1294 63.1661 32.1354 63.176C32.1414 63.1861 32.1464 63.1968 32.15 63.2065C32.1535 63.2161 32.1538 63.2201 32.1532 63.2162C32.1525 63.212 32.1504 63.1973 32.1504 63.17H28.1504C28.1504 64.1375 28.4631 65.0622 29.1356 65.8187L32.1252 63.1613ZM32.1504 63.17V45.8H28.1504V63.17H32.1504ZM32.1504 45.8C32.1504 45.7955 32.1507 45.8025 32.1477 45.8182C32.1446 45.8342 32.139 45.8539 32.1303 45.8748C32.1216 45.8956 32.1122 45.9115 32.1053 45.9217C32.0985 45.9316 32.0967 45.9321 32.1046 45.9242L29.2762 43.0958C28.5488 43.8232 28.1504 44.7588 28.1504 45.8H32.1504ZM32.0659 45.9619C32.0779 45.9505 32.0826 45.948 32.0792 45.9502C32.0755 45.9526 32.0674 45.9573 32.0557 45.962C32.044 45.9666 32.0341 45.9691 32.0284 45.9702C32.023 45.9712 32.0262 45.97 32.0404 45.97V41.97C31.0049 41.97 30.0636 42.3488 29.3149 43.0581L32.0659 45.9619ZM83.3005 58.7L81.4338 57.982L81.4338 57.982L83.3005 58.7ZM81.1705 62.15L79.6986 60.7959L79.6974 60.7972L81.1705 62.15ZM77.9305 64.46L77.1182 62.6323L77.1073 62.6373L77.9305 64.46ZM69.7705 64.46L70.5936 62.6373L70.5936 62.6373L69.7705 64.46ZM66.5305 62.15L65.0439 63.4879L65.0579 63.5035L65.0723 63.5189L66.5305 62.15ZM64.4305 58.7L66.2972 57.982L66.2972 57.982L64.4305 58.7ZM64.4305 50.3L66.2972 51.018L66.2972 51.018L64.4305 50.3ZM66.5305 46.88L65.0586 45.5259L65.0574 45.5272L66.5305 46.88ZM69.7705 44.54L70.5936 46.3627L70.5936 46.3627L69.7705 44.54ZM77.9305 44.54L77.1073 46.3628L77.1182 46.3676L77.9305 44.54ZM81.1705 46.88L79.6839 48.2179L79.6979 48.2335L79.7123 48.2489L81.1705 46.88ZM83.3005 50.3L81.4338 51.018L81.4338 51.018L83.3005 50.3ZM79.3405 50.87L77.5451 51.7513L77.5484 51.7579L77.5516 51.7644L79.3405 50.87ZM77.1205 48.26L78.2461 46.6068L78.2461 46.6068L77.1205 48.26ZM70.5805 48.26L71.7061 49.9132L71.7061 49.9132L70.5805 48.26ZM68.3605 50.84L66.5716 49.9456L66.5649 49.9589L66.5585 49.9724L68.3605 50.84ZM68.3605 58.16L66.5523 59.0148L66.5618 59.0347L66.5716 59.0544L68.3605 58.16ZM70.5805 60.74L71.7061 59.0868L71.7061 59.0868L70.5805 60.74ZM77.1205 60.74L78.2461 62.3932L78.2461 62.3932L77.1205 60.74ZM79.3405 58.16L81.1293 59.0544L81.1326 59.0479L81.1358 59.0413L79.3405 58.16ZM82.0505 54.5C82.0505 55.7735 81.8391 56.9282 81.4338 57.982L85.1672 59.418C85.7619 57.8718 86.0505 56.2265 86.0505 54.5H82.0505ZM81.4338 57.982C81.0219 59.053 80.4438 59.9859 79.6986 60.7959L82.6423 63.5041C83.7371 62.3141 84.5791 60.947 85.1672 59.418L81.4338 57.982ZM79.6974 60.7972C78.9896 61.568 78.137 62.1796 77.1182 62.6324L78.7427 66.2876C80.2439 65.6204 81.5514 64.692 82.6435 63.5028L79.6974 60.7972ZM77.1073 62.6373C76.148 63.0705 75.0718 63.3 73.8505 63.3V67.3C75.5891 67.3 77.2329 66.9695 78.7536 66.2827L77.1073 62.6373ZM73.8505 63.3C72.6291 63.3 71.5529 63.0705 70.5936 62.6373L68.9473 66.2827C70.468 66.9695 72.1118 67.3 73.8505 67.3V63.3ZM70.5936 62.6373C69.5901 62.184 68.7266 61.5672 67.9886 60.7811L65.0723 63.5189C66.1744 64.6928 67.4709 65.616 68.9473 66.2827L70.5936 62.6373ZM68.0171 60.8121C67.2863 60.0002 66.7126 59.0621 66.2972 57.982L62.5638 59.418C63.1484 60.9379 63.9746 62.2998 65.0439 63.4879L68.0171 60.8121ZM66.2972 57.982C65.8919 56.9282 65.6805 55.7735 65.6805 54.5H61.6805C61.6805 56.2265 61.9691 57.8718 62.5638 59.418L66.2972 57.982ZM65.6805 54.5C65.6805 53.2265 65.8919 52.0718 66.2972 51.018L62.5638 49.582C61.9691 51.1282 61.6805 52.7735 61.6805 54.5H65.6805ZM66.2972 51.018C66.7113 49.9413 67.2813 49.0192 68.0035 48.2328L65.0574 45.5272C63.9796 46.7008 63.1497 48.0587 62.5638 49.582L66.2972 51.018ZM68.0023 48.2341C68.7396 47.4327 69.5989 46.812 70.5936 46.3627L68.9473 42.7173C67.462 43.388 66.1613 44.3273 65.0586 45.5259L68.0023 48.2341ZM70.5936 46.3627C71.5529 45.9295 72.6291 45.7 73.8505 45.7V41.7C72.1118 41.7 70.468 42.0305 68.9473 42.7173L70.5936 46.3627ZM73.8505 45.7C75.0718 45.7 76.148 45.9295 77.1073 46.3627L78.7536 42.7173C77.2329 42.0305 75.5891 41.7 73.8505 41.7V45.7ZM77.1182 46.3676C78.1281 46.8165 78.9765 47.432 79.6839 48.2179L82.6571 45.5421C81.5644 44.328 80.2528 43.3835 78.7427 42.7124L77.1182 46.3676ZM79.7123 48.2489C80.4489 49.0335 81.0232 49.9504 81.4338 51.018L85.1672 49.582C84.5778 48.0496 83.732 46.6865 82.6286 45.5111L79.7123 48.2489ZM81.4338 51.018C81.8391 52.0718 82.0505 53.2265 82.0505 54.5H86.0505C86.0505 52.7735 85.7619 51.1282 85.1672 49.582L81.4338 51.018ZM82.1505 54.5C82.1505 52.884 81.8228 51.3626 81.1293 49.9756L77.5516 51.7644C77.9381 52.5374 78.1505 53.436 78.1505 54.5H82.1505ZM81.1358 49.9887C80.4554 48.6026 79.4944 47.4568 78.2461 46.6068L75.9949 49.9132C76.6265 50.3432 77.1456 50.9374 77.5451 51.7513L81.1358 49.9887ZM78.2461 46.6068C76.9441 45.7204 75.454 45.3 73.8505 45.3V49.3C74.727 49.3 75.4168 49.5196 75.9949 49.9132L78.2461 46.6068ZM73.8505 45.3C72.247 45.3 70.7568 45.7204 69.4549 46.6068L71.7061 49.9132C72.2841 49.5196 72.974 49.3 73.8505 49.3V45.3ZM69.4549 46.6068C68.2151 47.4509 67.2546 48.5797 66.5716 49.9456L70.1493 51.7344C70.5464 50.9403 71.0658 50.3491 71.7061 49.9132L69.4549 46.6068ZM66.5585 49.9724C65.8916 51.3574 65.5805 52.8802 65.5805 54.5H69.5805C69.5805 53.3998 69.7893 52.4826 70.1625 51.7076L66.5585 49.9724ZM65.5805 54.5C65.5805 56.1053 65.8937 57.6214 66.5523 59.0148L70.1686 57.3052C69.7873 56.4986 69.5805 55.5747 69.5805 54.5H65.5805ZM66.5716 59.0544C67.2545 60.4203 68.2151 61.5491 69.4549 62.3932L71.7061 59.0868C71.0658 58.6509 70.5464 58.0597 70.1493 57.2656L66.5716 59.0544ZM69.4549 62.3932C70.7568 63.2796 72.247 63.7 73.8505 63.7V59.7C72.974 59.7 72.2841 59.4804 71.7061 59.0868L69.4549 62.3932ZM73.8505 63.7C75.454 63.7 76.9441 63.2796 78.2461 62.3932L75.9949 59.0868C75.4168 59.4804 74.727 59.7 73.8505 59.7V63.7ZM78.2461 62.3932C79.4858 61.5491 80.4464 60.4203 81.1293 59.0544L77.5516 57.2656C77.1546 58.0597 76.6351 58.6509 75.9949 59.0868L78.2461 62.3932ZM81.1358 59.0413C81.8227 57.6421 82.1505 56.1165 82.1505 54.5H78.1505C78.1505 55.5635 77.9382 56.4779 77.5451 57.2787L81.1358 59.0413ZM116.064 58.7L114.197 57.982L114.197 57.982L116.064 58.7ZM113.934 62.15L112.462 60.7959L112.461 60.7972L113.934 62.15ZM110.694 64.46L109.882 62.6323L109.871 62.6373L110.694 64.46ZM102.534 64.46L103.357 62.6373L103.357 62.6373L102.534 64.46ZM99.2941 62.15L97.8076 63.4879L97.8216 63.5035L97.836 63.5189L99.2941 62.15ZM97.1941 58.7L99.0608 57.982L99.0608 57.982L97.1941 58.7ZM97.1941 50.3L99.0608 51.018L99.0608 51.018L97.1941 50.3ZM99.2941 46.88L97.8223 45.5259L97.8211 45.5272L99.2941 46.88ZM102.534 44.54L103.357 46.3627L103.357 46.3627L102.534 44.54ZM110.694 44.54L109.871 46.3628L109.882 46.3676L110.694 44.54ZM113.934 46.88L112.448 48.2179L112.462 48.2335L112.476 48.2489L113.934 46.88ZM116.064 50.3L114.197 51.018L114.197 51.018L116.064 50.3ZM112.104 50.87L110.309 51.7513L110.312 51.7579L110.315 51.7644L112.104 50.87ZM109.884 48.26L111.01 46.6068L111.01 46.6068L109.884 48.26ZM103.344 48.26L104.47 49.9132L104.47 49.9132L103.344 48.26ZM101.124 50.84L99.3353 49.9456L99.3286 49.9589L99.3221 49.9724L101.124 50.84ZM101.124 58.16L99.316 59.0148L99.3254 59.0347L99.3353 59.0544L101.124 58.16ZM103.344 60.74L104.47 59.0868L104.47 59.0868L103.344 60.74ZM109.884 60.74L111.01 62.3932L111.01 62.3932L109.884 60.74ZM112.104 58.16L113.893 59.0544L113.896 59.0479L113.899 59.0413L112.104 58.16ZM114.814 54.5C114.814 55.7735 114.603 56.9282 114.197 57.982L117.931 59.418C118.526 57.8718 118.814 56.2265 118.814 54.5H114.814ZM114.197 57.982C113.786 59.053 113.207 59.9859 112.462 60.7959L115.406 63.5041C116.501 62.3141 117.343 60.947 117.931 59.418L114.197 57.982ZM112.461 60.7972C111.753 61.568 110.901 62.1796 109.882 62.6324L111.506 66.2876C113.008 65.6204 114.315 64.692 115.407 63.5028L112.461 60.7972ZM109.871 62.6373C108.912 63.0705 107.835 63.3 106.614 63.3V67.3C108.353 67.3 109.997 66.9695 111.517 66.2827L109.871 62.6373ZM106.614 63.3C105.393 63.3 104.317 63.0705 103.357 62.6373L101.711 66.2827C103.232 66.9695 104.875 67.3 106.614 67.3V63.3ZM103.357 62.6373C102.354 62.184 101.49 61.5672 100.752 60.7811L97.836 63.5189C98.938 64.6928 100.235 65.616 101.711 66.2827L103.357 62.6373ZM100.781 60.8121C100.05 60.0002 99.4762 59.0621 99.0608 57.982L95.3274 59.418C95.9121 60.9379 96.7383 62.2998 97.8076 63.4879L100.781 60.8121ZM99.0608 57.982C98.6555 56.9282 98.4441 55.7735 98.4441 54.5H94.4441C94.4441 56.2265 94.7328 57.8718 95.3274 59.418L99.0608 57.982ZM98.4441 54.5C98.4441 53.2265 98.6555 52.0718 99.0608 51.018L95.3274 49.582C94.7328 51.1282 94.4441 52.7735 94.4441 54.5H98.4441ZM99.0608 51.018C99.4749 49.9413 100.045 49.0192 100.767 48.2328L97.8211 45.5272C96.7433 46.7008 95.9133 48.0587 95.3274 49.582L99.0608 51.018ZM100.766 48.2341C101.503 47.4327 102.363 46.812 103.357 46.3627L101.711 42.7173C100.226 43.388 98.925 44.3273 97.8223 45.5259L100.766 48.2341ZM103.357 46.3627C104.317 45.9295 105.393 45.7 106.614 45.7V41.7C104.875 41.7 103.232 42.0305 101.711 42.7173L103.357 46.3627ZM106.614 45.7C107.835 45.7 108.912 45.9295 109.871 46.3627L111.517 42.7173C109.997 42.0305 108.353 41.7 106.614 41.7V45.7ZM109.882 46.3676C110.892 46.8165 111.74 47.432 112.448 48.2179L115.421 45.5421C114.328 44.328 113.017 43.3835 111.506 42.7124L109.882 46.3676ZM112.476 48.2489C113.213 49.0335 113.787 49.9504 114.197 51.018L117.931 49.582C117.341 48.0496 116.496 46.6865 115.392 45.5111L112.476 48.2489ZM114.197 51.018C114.603 52.0718 114.814 53.2265 114.814 54.5H118.814C118.814 52.7735 118.526 51.1282 117.931 49.582L114.197 51.018ZM114.914 54.5C114.914 52.884 114.587 51.3626 113.893 49.9756L110.315 51.7644C110.702 52.5374 110.914 53.436 110.914 54.5H114.914ZM113.899 49.9887C113.219 48.6026 112.258 47.4568 111.01 46.6068L108.759 49.9132C109.39 50.3432 109.909 50.9374 110.309 51.7513L113.899 49.9887ZM111.01 46.6068C109.708 45.7204 108.218 45.3 106.614 45.3V49.3C107.491 49.3 108.181 49.5196 108.759 49.9132L111.01 46.6068ZM106.614 45.3C105.011 45.3 103.521 45.7204 102.219 46.6068L104.47 49.9132C105.048 49.5196 105.738 49.3 106.614 49.3V45.3ZM102.219 46.6068C100.979 47.4509 100.018 48.5797 99.3353 49.9456L102.913 51.7344C103.31 50.9403 103.829 50.3491 104.47 49.9132L102.219 46.6068ZM99.3221 49.9724C98.6553 51.3574 98.3441 52.8802 98.3441 54.5H102.344C102.344 53.3998 102.553 52.4826 102.926 51.7076L99.3221 49.9724ZM98.3441 54.5C98.3441 56.1053 98.6573 57.6214 99.316 59.0148L102.932 57.3052C102.551 56.4986 102.344 55.5747 102.344 54.5H98.3441ZM99.3353 59.0544C100.018 60.4203 100.979 61.5491 102.219 62.3932L104.47 59.0868C103.829 58.6509 103.31 58.0597 102.913 57.2656L99.3353 59.0544ZM102.219 62.3932C103.521 63.2796 105.011 63.7 106.614 63.7V59.7C105.738 59.7 105.048 59.4804 104.47 59.0868L102.219 62.3932ZM106.614 63.7C108.218 63.7 109.708 63.2796 111.01 62.3932L108.759 59.0868C108.181 59.4804 107.491 59.7 106.614 59.7V63.7ZM111.01 62.3932C112.249 61.5491 113.21 60.4203 113.893 59.0544L110.315 57.2656C109.918 58.0597 109.399 58.6509 108.759 59.0868L111.01 62.3932ZM113.899 59.0413C114.586 57.6421 114.914 56.1165 114.914 54.5H110.914C110.914 55.5635 110.702 56.4779 110.309 57.2787L113.899 59.0413ZM135.402 64.49L133.988 65.9042L134.008 65.9244L134.029 65.944L135.402 64.49ZM134.862 45.77V43.77H132.862V45.77H134.862ZM138.762 45.77H140.762V43.77H138.762V45.77ZM138.192 64.49L139.565 65.944L139.567 65.9419L138.192 64.49ZM128.832 46.97L127.461 48.4264L127.482 48.4459L127.503 48.4648L128.832 46.97ZM128.832 44.48L130.155 45.9797L130.161 45.9748L128.832 44.48ZM144.762 44.48L143.391 45.9364L143.412 45.9559L143.433 45.9748L144.762 44.48ZM144.762 47L146.085 48.4997L146.091 48.4948L144.762 47ZM136.782 63C136.743 63 136.72 62.9971 136.709 62.9953C136.7 62.9937 136.701 62.993 136.71 62.9965C136.72 63.0001 136.733 63.0061 136.747 63.0148C136.761 63.0235 136.77 63.0315 136.775 63.036L134.029 65.944C134.809 66.6813 135.783 67 136.782 67V63ZM136.816 63.0758C136.812 63.0713 136.815 63.0744 136.823 63.0861C136.831 63.0979 136.84 63.114 136.848 63.1327C136.856 63.1515 136.86 63.1669 136.861 63.1764C136.863 63.1855 136.862 63.1843 136.862 63.17H132.862C132.862 64.2077 133.244 65.1602 133.988 65.9042L136.816 63.0758ZM136.862 63.17V45.77H132.862V63.17H136.862ZM134.862 47.77H138.762V43.77H134.862V47.77ZM136.762 45.77V63.17H140.762V45.77H136.762ZM136.762 63.17C136.762 63.1777 136.761 63.1723 136.764 63.1567C136.767 63.1407 136.773 63.1199 136.783 63.0971C136.793 63.0744 136.804 63.0565 136.812 63.0445C136.821 63.0328 136.824 63.031 136.816 63.0381L139.567 65.9419C140.343 65.2071 140.762 64.2433 140.762 63.17H136.762ZM136.819 63.036C136.827 63.0282 136.839 63.0185 136.854 63.0091C136.869 62.9998 136.882 62.9943 136.889 62.9917C136.904 62.9863 136.876 63 136.782 63V67C137.779 67 138.771 66.694 139.565 65.944L136.819 63.036ZM130.152 45.45C130.125 45.45 130.11 45.4479 130.106 45.4472C130.102 45.4466 130.106 45.4469 130.115 45.4504C130.125 45.4539 130.136 45.459 130.146 45.465C130.156 45.471 130.161 45.4753 130.161 45.4752L127.503 48.4648C128.26 49.1373 129.184 49.45 130.152 49.45V45.45ZM130.203 45.5136C130.217 45.5269 130.236 45.5477 130.256 45.5763C130.275 45.605 130.291 45.6354 130.303 45.6646C130.328 45.7256 130.322 45.7504 130.322 45.71H126.322C126.322 46.7121 126.672 47.6834 127.461 48.4264L130.203 45.5136ZM130.322 45.71C130.322 45.6684 130.328 45.7027 130.297 45.7785C130.263 45.861 130.208 45.9327 130.155 45.9797L127.509 42.9803C126.673 43.7176 126.322 44.7095 126.322 45.71H130.322ZM130.161 45.9748C130.161 45.9747 130.156 45.979 130.146 45.985C130.136 45.991 130.125 45.9961 130.115 45.9996C130.106 46.0031 130.102 46.0034 130.106 46.0028C130.11 46.0021 130.125 46 130.152 46V42C129.184 42 128.26 42.3127 127.503 42.9852L130.161 45.9748ZM130.152 46H143.472V42H130.152V46ZM143.472 46C143.525 46 143.523 46.0078 143.487 45.9944C143.47 45.9882 143.451 45.9791 143.432 45.9672C143.413 45.9555 143.399 45.9442 143.391 45.9364L146.133 43.0236C145.378 42.3136 144.439 42 143.472 42V46ZM143.433 45.9748C143.406 45.9503 143.361 45.8977 143.329 45.8228C143.298 45.7518 143.302 45.7136 143.302 45.74H147.302C147.302 44.6999 146.914 43.7174 146.091 42.9852L143.433 45.9748ZM143.302 45.74C143.302 45.7664 143.298 45.7282 143.329 45.6572C143.361 45.5823 143.406 45.5297 143.433 45.5052L146.091 48.4948C146.914 47.7625 147.302 46.7801 147.302 45.74H143.302ZM143.439 45.5003C143.449 45.4911 143.463 45.4803 143.481 45.4701C143.498 45.46 143.514 45.4532 143.526 45.4491C143.55 45.4406 143.539 45.45 143.472 45.45V49.45C144.403 49.45 145.326 49.1692 146.085 48.4997L143.439 45.5003ZM143.472 45.45H130.152V49.45H143.472V45.45ZM161.631 44.54L160.217 45.9542L160.256 45.9935L160.298 46.0305L161.631 44.54ZM161.631 64.49L162.965 65.9805L162.986 65.9615L163.007 65.9419L161.631 64.49ZM158.961 64.49L157.507 65.8632L157.527 65.884L157.547 65.9042L158.961 64.49ZM158.991 44.54L160.364 45.994L160.385 45.9744L160.405 45.9542L158.991 44.54ZM175.011 44.54L173.557 45.9132L173.577 45.934L173.597 45.9542L175.011 44.54ZM174.981 64.49L176.395 65.9042L176.395 65.9042L174.981 64.49ZM172.311 64.49L170.897 65.9042L170.936 65.9435L170.978 65.9805L172.311 64.49ZM172.341 44.54L173.675 46.0305L173.696 46.0115L173.717 45.9919L172.341 44.54ZM160.281 52.73V50.73H158.281V52.73H160.281ZM173.661 52.73H175.661V50.73H173.661V52.73ZM173.661 56.18V58.18H175.661V56.18H173.661ZM160.281 56.18H158.281V58.18H160.281V56.18ZM160.371 46C160.365 46 160.35 45.9994 160.328 45.9949C160.305 45.9904 160.281 45.9831 160.258 45.9733C160.209 45.9522 160.196 45.9336 160.217 45.9542L163.045 43.1258C162.336 42.416 161.416 42 160.371 42V46ZM160.298 46.0305C160.298 46.0307 160.288 46.0216 160.273 46.0018C160.258 45.9817 160.243 45.9559 160.229 45.9258C160.2 45.8603 160.201 45.8187 160.201 45.83H164.201C164.201 44.7539 163.778 43.7774 162.965 43.0495L160.298 46.0305ZM160.201 45.83V63.17H164.201V45.83H160.201ZM160.201 63.17C160.201 63.1777 160.201 63.1723 160.204 63.1567C160.207 63.1407 160.213 63.1199 160.223 63.0971C160.232 63.0744 160.243 63.0565 160.252 63.0445C160.26 63.0328 160.263 63.031 160.256 63.0381L163.007 65.9419C163.782 65.2071 164.201 64.2433 164.201 63.17H160.201ZM160.298 62.9995C160.284 63.0116 160.278 63.0155 160.279 63.0148C160.28 63.014 160.286 63.0106 160.295 63.0069C160.3 63.0052 160.304 63.0037 160.309 63.0025C160.313 63.0013 160.317 63.0005 160.319 63.0001C160.324 62.9991 160.322 63 160.311 63V67C161.314 67 162.226 66.6414 162.965 65.9805L160.298 62.9995ZM160.311 63C160.234 63 160.226 62.9885 160.26 63.0016C160.277 63.0079 160.299 63.0181 160.322 63.0328C160.344 63.0476 160.363 63.063 160.375 63.0758L157.547 65.9042C158.324 66.6811 159.315 67 160.311 67V63ZM160.415 63.1168C160.413 63.1146 160.417 63.1188 160.425 63.1299C160.432 63.1411 160.439 63.1547 160.444 63.1692C160.45 63.1835 160.452 63.1934 160.452 63.1963C160.453 63.1987 160.451 63.1908 160.451 63.17H156.451C156.451 64.1724 156.798 65.112 157.507 65.8632L160.415 63.1168ZM160.451 63.17V45.83H156.451V63.17H160.451ZM160.451 45.83C160.451 45.8045 160.455 45.8334 160.431 45.8898C160.42 45.9159 160.407 45.94 160.392 45.9602C160.378 45.9802 160.367 45.9912 160.364 45.994L157.618 43.086C156.836 43.8245 156.451 44.7907 156.451 45.83H160.451ZM160.405 45.9542C160.403 45.9565 160.395 45.9644 160.38 45.9741C160.365 45.9839 160.349 45.9919 160.335 45.9975C160.321 46.003 160.314 46.0039 160.317 46.0033C160.321 46.0026 160.338 46 160.371 46V42C159.339 42 158.351 42.3514 157.577 43.1258L160.405 45.9542ZM173.661 46C173.726 46 173.721 46.0099 173.676 45.992C173.654 45.9834 173.63 45.971 173.607 45.9549C173.584 45.9389 173.567 45.9236 173.557 45.9132L176.465 43.1668C175.696 42.3525 174.692 42 173.661 42V46ZM173.597 45.9542C173.591 45.9486 173.58 45.936 173.567 45.9163C173.554 45.8964 173.542 45.8745 173.534 45.8528C173.515 45.8063 173.521 45.7905 173.521 45.83H177.521C177.521 44.8273 177.173 43.8733 176.425 43.1258L173.597 45.9542ZM173.521 45.83V63.17H177.521V45.83H173.521ZM173.521 63.17C173.521 63.1843 173.52 63.1855 173.522 63.1764C173.523 63.1669 173.527 63.1515 173.535 63.1327C173.543 63.1139 173.552 63.0979 173.56 63.0861C173.568 63.0744 173.571 63.0713 173.567 63.0758L176.395 65.9042C177.139 65.1602 177.521 64.2077 177.521 63.17H173.521ZM173.567 63.0758C173.583 63.0594 173.604 63.0421 173.629 63.0267C173.653 63.0113 173.674 63.0017 173.688 62.9965C173.716 62.986 173.697 63 173.601 63V67C174.595 67 175.605 66.6946 176.395 65.9042L173.567 63.0758ZM173.601 63C173.6 63 173.606 62.9999 173.618 63.0021C173.63 63.0044 173.642 63.008 173.654 63.0126C173.665 63.0171 173.671 63.0208 173.671 63.0207C173.671 63.0204 173.662 63.0146 173.645 62.9995L170.978 65.9805C171.699 66.6263 172.597 67 173.601 67V63ZM173.725 63.0758C173.721 63.0713 173.725 63.0744 173.733 63.0861C173.741 63.0979 173.75 63.114 173.757 63.1327C173.765 63.1515 173.769 63.1669 173.771 63.1764C173.772 63.1855 173.771 63.1843 173.771 63.17H169.771C169.771 64.2077 170.153 65.1602 170.897 65.9042L173.725 63.0758ZM173.771 63.17V45.83H169.771V63.17H173.771ZM173.771 45.83C173.771 45.8187 173.772 45.8603 173.743 45.9258C173.73 45.9559 173.714 45.9817 173.699 46.0018C173.685 46.0216 173.675 46.0307 173.675 46.0305L171.008 43.0495C170.194 43.7774 169.771 44.7539 169.771 45.83H173.771ZM173.717 45.9919C173.732 45.9774 173.739 45.9729 173.737 45.9741C173.735 45.9755 173.727 45.9805 173.713 45.9861C173.7 45.9917 173.686 45.9957 173.674 45.9981C173.662 46.0003 173.657 46 173.661 46V42C172.624 42 171.698 42.3944 170.966 43.0881L173.717 45.9919ZM160.281 54.73H173.661V50.73H160.281V54.73ZM171.661 52.73V56.18H175.661V52.73H171.661ZM173.661 54.18H160.281V58.18H173.661V54.18ZM162.281 56.18V52.73H158.281V56.18H162.281ZM193.194 64.49L194.527 65.9805L194.548 65.9615L194.569 65.9419L193.194 64.49ZM190.524 64.49L189.07 65.8632L189.089 65.884L189.109 65.9042L190.524 64.49ZM190.554 44.54L191.927 45.994L191.948 45.9744L191.968 45.9542L190.554 44.54ZM193.194 44.54L191.779 45.9542L191.819 45.9935L191.86 46.0305L193.194 44.54ZM191.764 63.17C191.764 63.1777 191.763 63.1723 191.766 63.1567C191.769 63.1407 191.775 63.1199 191.785 63.0971C191.795 63.0744 191.806 63.0565 191.814 63.0445C191.823 63.0328 191.826 63.031 191.818 63.0381L194.569 65.9419C195.345 65.2071 195.764 64.2433 195.764 63.17H191.764ZM191.86 62.9995C191.847 63.0116 191.84 63.0155 191.841 63.0148C191.842 63.014 191.848 63.0106 191.858 63.0069C191.862 63.0052 191.867 63.0037 191.871 63.0025C191.876 63.0013 191.879 63.0005 191.881 63.0001C191.887 62.9991 191.885 63 191.874 63V67C192.876 67 193.789 66.6414 194.527 65.9805L191.86 62.9995ZM191.874 63C191.796 63 191.788 62.9885 191.823 63.0016C191.84 63.0079 191.861 63.0181 191.884 63.0328C191.907 63.0476 191.925 63.063 191.938 63.0758L189.109 65.9042C189.886 66.6811 190.878 67 191.874 67V63ZM191.978 63.1168C191.976 63.1146 191.98 63.1188 191.987 63.1299C191.994 63.1411 192.001 63.1547 192.007 63.1692C192.012 63.1835 192.014 63.1934 192.015 63.1963C192.015 63.1987 192.014 63.1908 192.014 63.17H188.014C188.014 64.1724 188.36 65.112 189.07 65.8632L191.978 63.1168ZM192.014 63.17V45.83H188.014V63.17H192.014ZM192.014 45.83C192.014 45.8045 192.017 45.8334 191.994 45.8898C191.983 45.9159 191.969 45.94 191.955 45.9602C191.941 45.9802 191.93 45.9912 191.927 45.994L189.18 43.086C188.398 43.8245 188.014 44.7907 188.014 45.83H192.014ZM191.968 45.9542C191.966 45.9565 191.957 45.9644 191.942 45.9741C191.927 45.9839 191.912 45.9919 191.897 45.9975C191.883 46.003 191.877 46.0039 191.88 46.0033C191.884 46.0026 191.901 46 191.934 46V42C190.901 42 189.914 42.3514 189.139 43.1258L191.968 45.9542ZM191.934 46C191.928 46 191.913 45.9994 191.89 45.9949C191.868 45.9904 191.844 45.9831 191.821 45.9733C191.772 45.9522 191.759 45.9336 191.779 45.9542L194.608 43.1258C193.898 42.416 192.979 42 191.934 42V46ZM191.86 46.0305C191.86 46.0307 191.85 46.0216 191.836 46.0018C191.821 45.9817 191.805 45.9559 191.792 45.9258C191.763 45.8603 191.764 45.8187 191.764 45.83H195.764C195.764 44.7539 195.341 43.7774 194.527 43.0495L191.86 46.0305ZM191.764 45.83V63.17H195.764V45.83H191.764ZM221.445 44.51L220.031 45.9242L220.073 45.9658L220.117 46.0048L221.445 44.51ZM221.445 47L222.769 48.4997L222.774 48.4948L221.445 47ZM211.755 47.45L209.988 46.5142L208.434 49.45H211.755V47.45ZM212.025 46.94H214.025L210.258 46.0042L212.025 46.94ZM212.025 52.79L210.611 54.2042L214.025 57.6184V52.79H212.025ZM211.785 52.55V50.55H206.957L210.371 53.9642L211.785 52.55ZM220.095 53.06L218.681 54.4742L218.723 54.5158L218.767 54.5548L220.095 53.06ZM220.095 55.55L221.419 57.0497L221.424 57.0448L220.095 55.55ZM211.875 56L210.179 54.94L208.267 58H211.875V56ZM212.025 55.76H214.025V48.7864L210.329 54.7L212.025 55.76ZM212.025 61.82L210.531 63.1487L214.025 67.0804V61.82H212.025ZM211.785 61.55V59.55H207.332L210.291 62.8787L211.785 61.55ZM221.445 62.09L219.991 63.4632L220.031 63.5048L220.072 63.544L221.445 62.09ZM221.445 64.52L220.117 63.0252L220.095 63.0441L220.075 63.0636L221.445 64.52ZM208.785 64.49L207.331 65.8632L207.371 65.9048L207.412 65.944L208.785 64.49ZM208.785 44.54L207.371 43.1258L207.371 43.1258L208.785 44.54ZM210.105 46H220.155V42H210.105V46ZM220.155 46C220.195 46 220.179 46.0058 220.133 45.9874C220.111 45.9788 220.089 45.9675 220.069 45.9543C220.049 45.9412 220.037 45.9299 220.031 45.9242L222.86 43.0958C222.112 42.3483 221.158 42 220.155 42V46ZM220.117 46.0048C220.089 45.9803 220.044 45.9277 220.012 45.8528C219.982 45.7818 219.985 45.7436 219.985 45.77H223.985C223.985 44.7299 223.598 43.7474 222.774 43.0152L220.117 46.0048ZM219.985 45.77C219.985 45.7756 219.986 45.725 220.019 45.6485C220.053 45.5702 220.098 45.5219 220.117 45.5052L222.774 48.4948C223.579 47.7791 223.985 46.8165 223.985 45.77H219.985ZM220.122 45.5003C220.133 45.4911 220.147 45.4803 220.164 45.4701C220.182 45.46 220.198 45.4532 220.209 45.4491C220.234 45.4406 220.222 45.45 220.155 45.45V49.45C221.086 49.45 222.01 49.1692 222.769 48.4997L220.122 45.5003ZM220.155 45.45H211.755V49.45H220.155V45.45ZM213.523 48.3858L213.793 47.8758L210.258 46.0042L209.988 46.5142L213.523 48.3858ZM210.025 46.94V52.79H214.025V46.94H210.025ZM213.44 51.3758L213.2 51.1358L210.371 53.9642L210.611 54.2042L213.44 51.3758ZM211.785 54.55H218.805V50.55H211.785V54.55ZM218.805 54.55C218.845 54.55 218.829 54.5558 218.783 54.5374C218.761 54.5288 218.739 54.5175 218.719 54.5043C218.699 54.4912 218.687 54.4799 218.681 54.4742L221.51 51.6458C220.762 50.8983 219.808 50.55 218.805 50.55V54.55ZM218.767 54.5548C218.739 54.5303 218.694 54.4777 218.662 54.4028C218.632 54.3318 218.635 54.2936 218.635 54.32H222.635C222.635 53.2799 222.248 52.2975 221.424 51.5652L218.767 54.5548ZM218.635 54.32C218.635 54.3256 218.636 54.275 218.669 54.1985C218.704 54.1202 218.748 54.0719 218.767 54.0552L221.424 57.0448C222.229 56.3291 222.635 55.3665 222.635 54.32H218.635ZM218.772 54.0503C218.783 54.0411 218.797 54.0303 218.814 54.0201C218.832 54.01 218.848 54.0032 218.859 53.9991C218.884 53.9906 218.872 54 218.805 54V58C219.736 58 220.66 57.7192 221.419 57.0497L218.772 54.0503ZM218.805 54H211.875V58H218.805V54ZM213.571 57.06L213.721 56.82L210.329 54.7L210.179 54.94L213.571 57.06ZM210.025 55.76V61.82H214.025V55.76H210.025ZM213.52 60.4913L213.28 60.2213L210.291 62.8787L210.531 63.1487L213.52 60.4913ZM211.785 63.55H220.155V59.55H211.785V63.55ZM220.155 63.55C220.181 63.55 220.152 63.5535 220.096 63.5299C220.07 63.519 220.045 63.5054 220.025 63.4912C220.005 63.4772 219.994 63.4662 219.991 63.4632L222.899 60.7168C222.161 59.9347 221.195 59.55 220.155 59.55V63.55ZM220.072 63.544C220.086 63.5575 220.057 63.5331 220.027 63.4657C219.995 63.3952 219.985 63.3289 219.985 63.29H223.985C223.985 62.2345 223.545 61.3216 222.819 60.636L220.072 63.544ZM219.985 63.29C219.985 63.2956 219.986 63.245 220.019 63.1685C220.053 63.0902 220.098 63.0419 220.117 63.0252L222.774 66.0148C223.579 65.2991 223.985 64.3365 223.985 63.29H219.985ZM220.075 63.0636C220.083 63.0558 220.097 63.0445 220.115 63.0328C220.134 63.0209 220.154 63.0118 220.17 63.0056C220.206 62.9922 220.209 63 220.155 63V67C221.122 67 222.062 66.6864 222.816 65.9764L220.075 63.0636ZM220.155 63H210.105V67H220.155V63ZM210.105 63C210.085 63 210.077 62.9983 210.079 62.9988C210.082 62.9993 210.092 63.0014 210.106 63.0069C210.121 63.0125 210.134 63.0195 210.146 63.0267C210.157 63.0337 210.161 63.038 210.159 63.036L207.412 65.944C208.163 66.6536 209.103 67 210.105 67V63ZM210.239 63.1168C210.237 63.1146 210.242 63.1188 210.249 63.1299C210.256 63.1411 210.263 63.1547 210.268 63.1692C210.274 63.1835 210.276 63.1934 210.277 63.1963C210.277 63.1987 210.275 63.1908 210.275 63.17H206.275C206.275 64.1724 206.622 65.112 207.331 65.8632L210.239 63.1168ZM210.275 63.17V45.83H206.275V63.17H210.275ZM210.275 45.83C210.275 45.7905 210.281 45.8063 210.263 45.8528C210.254 45.8745 210.243 45.8964 210.23 45.9163C210.217 45.936 210.205 45.9486 210.2 45.9542L207.371 43.1258C206.624 43.8733 206.275 44.8273 206.275 45.83H210.275ZM210.2 45.9542C210.204 45.9497 210.201 45.9536 210.189 45.9614C210.177 45.9695 210.161 45.9784 210.143 45.9861C210.124 45.9938 210.108 45.9977 210.099 45.9995C210.09 46.0012 210.091 46 210.105 46V42C209.068 42 208.115 42.3818 207.371 43.1258L210.2 45.9542Z" fill="#FEA3AC"/>
<path d="M40.833 20.3584C40.5726 20.3584 40.3203 20.4072 40.0762 20.5049C39.8483 20.6025 39.6204 20.7083 39.3926 20.8223C39.181 20.9199 38.9531 21.0176 38.709 21.1152C38.4811 21.1966 38.237 21.2373 37.9766 21.2373C37.5046 21.2373 37.2686 20.9769 37.2686 20.4561V20.4072C37.2686 20.391 37.2767 20.3747 37.293 20.3584L40.9795 19.2354C41.0283 18.5192 41.0365 17.8112 41.0039 17.1113C40.9876 16.3952 40.9714 15.7116 40.9551 15.0605C40.9388 14.3932 40.9469 13.7666 40.9795 13.1807C41.0283 12.5947 41.126 12.0495 41.2725 11.5449C41.4189 11.0404 41.6387 10.6009 41.9316 10.2266C42.2409 9.85221 42.6641 9.54297 43.2012 9.29883C43.3802 9.29883 43.5755 9.32324 43.7871 9.37207C44.015 9.4209 44.2184 9.50228 44.3975 9.61621C44.5765 9.71387 44.7311 9.85221 44.8613 10.0312C44.9915 10.194 45.0566 10.3812 45.0566 10.5928C44.3405 10.5928 43.7708 10.723 43.3477 10.9834C42.9408 11.2275 42.6315 11.5531 42.4199 11.96C42.2083 12.3669 42.0781 12.847 42.0293 13.4004C41.9805 13.9375 41.9642 14.5072 41.9805 15.1094C42.013 15.6953 42.0537 16.2894 42.1025 16.8916C42.1676 17.4938 42.2002 18.0635 42.2002 18.6006C42.7536 18.6006 43.2907 18.5436 43.8115 18.4297C44.3486 18.3158 44.8776 18.1937 45.3984 18.0635C45.9355 17.917 46.4727 17.7949 47.0098 17.6973C47.5469 17.5833 48.084 17.5264 48.6211 17.5264C49.0117 17.5264 49.207 17.7135 49.207 18.0879C49.207 18.2344 49.0687 18.3646 48.792 18.4785C48.5153 18.5924 48.1572 18.6982 47.7178 18.7959C47.2783 18.8773 46.79 18.9668 46.2529 19.0645C45.7158 19.1458 45.1787 19.2435 44.6416 19.3574C44.1208 19.4551 43.6325 19.5609 43.1768 19.6748C42.721 19.7887 42.363 19.9271 42.1025 20.0898C42.0212 20.7083 42.013 21.3268 42.0781 21.9453C42.1595 22.5475 42.2572 23.1497 42.3711 23.752C42.5013 24.3379 42.6234 24.932 42.7373 25.5342C42.8675 26.1201 42.9408 26.7061 42.957 27.292C42.957 27.4385 42.9245 27.6012 42.8594 27.7803C42.8105 27.943 42.7048 28.0244 42.542 28.0244C42.4118 28.0244 42.306 27.9756 42.2246 27.8779C42.1432 27.7803 42.07 27.6745 42.0049 27.5605C41.9561 27.4303 41.9154 27.3083 41.8828 27.1943C41.8503 27.0641 41.8258 26.9583 41.8096 26.877C41.6956 26.2747 41.5898 25.7132 41.4922 25.1924C41.3945 24.6553 41.305 24.1344 41.2236 23.6299C41.1585 23.109 41.1016 22.5882 41.0527 22.0674C41.0202 21.5465 40.9958 20.9769 40.9795 20.3584H40.833ZM48.084 18.6738L49.5244 24.6064H49.8174C49.8662 24.0856 49.9557 23.5322 50.0859 22.9463C50.2324 22.3604 50.4277 21.7826 50.6719 21.2129C50.916 20.627 51.2008 20.0654 51.5264 19.5283C51.8682 18.9912 52.2507 18.5192 52.6738 18.1123C53.097 17.7054 53.569 17.3799 54.0898 17.1357C54.627 16.8916 55.2129 16.7695 55.8477 16.7695C55.8477 17.1602 55.6849 17.502 55.3594 17.7949C55.0501 18.0879 54.6758 18.3727 54.2363 18.6494C53.7969 18.9261 53.3411 19.2191 52.8691 19.5283C52.4134 19.8376 52.0553 20.2119 51.7949 20.6514C51.5182 21.0908 51.2904 21.6035 51.1113 22.1895C50.9486 22.7591 50.8102 23.3532 50.6963 23.9717C50.5986 24.5739 50.5254 25.1842 50.4766 25.8027C50.4277 26.4049 50.387 26.9502 50.3545 27.4385C50.2568 27.585 50.151 27.7233 50.0371 27.8535C49.9395 27.9674 49.8092 28.0244 49.6465 28.0244C49.5814 28.0244 49.5 28.0081 49.4023 27.9756C49.3047 27.9268 49.2396 27.8372 49.207 27.707L47.4492 18.6738H48.084ZM57.4346 22.3359C57.0602 22.5638 56.6777 22.7428 56.2871 22.873C55.8965 22.987 55.5791 22.9056 55.335 22.6289C55.335 22.3197 55.4408 22.1162 55.6523 22.0186C55.8639 21.9046 56.0999 21.8151 56.3604 21.75C56.637 21.6849 56.9056 21.6035 57.166 21.5059C57.4427 21.4082 57.6299 21.2129 57.7275 20.9199C57.8252 20.5944 57.9147 20.2038 57.9961 19.748C58.0775 19.2923 58.1914 18.8529 58.3379 18.4297C58.4844 18.0065 58.696 17.6566 58.9727 17.3799C59.2493 17.0869 59.6318 16.9404 60.1201 16.9404C60.3968 16.9404 60.7386 17.0381 61.1455 17.2334C61.5687 17.4124 61.9674 17.6322 62.3418 17.8926C62.7161 18.153 63.0335 18.4297 63.2939 18.7227C63.5544 19.0156 63.6846 19.2842 63.6846 19.5283C63.6846 19.6423 63.6683 19.748 63.6357 19.8457C63.6195 19.9434 63.5381 20.0247 63.3916 20.0898L58.582 21.75L58.5576 21.8721C58.5576 21.9372 58.5495 22.0267 58.5332 22.1406V22.4336C58.5332 22.5475 58.5332 22.6289 58.5332 22.6777C58.5332 23.0033 58.5576 23.4102 58.6064 23.8984C58.6553 24.3704 58.7529 24.8343 58.8994 25.29C59.0622 25.7295 59.2819 26.112 59.5586 26.4375C59.8353 26.763 60.2096 26.9258 60.6816 26.9258C60.8607 26.9258 61.0072 26.8932 61.1211 26.8281C61.2513 26.7467 61.3734 26.6654 61.4873 26.584C61.6175 26.4863 61.7396 26.4049 61.8535 26.3398C61.9837 26.2585 62.1302 26.2178 62.293 26.2178C62.293 26.4619 62.236 26.6979 62.1221 26.9258C62.0244 27.1374 61.8861 27.3245 61.707 27.4873C61.528 27.6501 61.3245 27.7803 61.0967 27.8779C60.8688 27.9756 60.641 28.0244 60.4131 28.0244C59.7946 28.0244 59.2982 27.8128 58.9238 27.3896C58.5495 26.9502 58.2565 26.4294 58.0449 25.8271C57.8496 25.2087 57.7113 24.582 57.6299 23.9473C57.5485 23.2962 57.4834 22.7591 57.4346 22.3359ZM60.4131 18.0146C60.1201 18.0146 59.8678 18.096 59.6562 18.2588C59.4609 18.4215 59.2982 18.625 59.168 18.8691C59.0378 19.1133 58.9401 19.3818 58.875 19.6748C58.8262 19.9515 58.8018 20.2038 58.8018 20.4316C59.0622 20.4316 59.347 20.4154 59.6562 20.3828C59.9818 20.3503 60.2992 20.2852 60.6084 20.1875C60.9176 20.0898 61.1943 19.9678 61.4385 19.8213C61.6989 19.6585 61.8779 19.4632 61.9756 19.2354C61.7314 18.8447 61.5036 18.5436 61.292 18.332C61.0804 18.1204 60.7874 18.0146 60.4131 18.0146ZM65.9307 27.1699C65.9307 26.9746 65.9469 26.8118 65.9795 26.6816C66.012 26.5352 66.0609 26.4375 66.126 26.3887C66.2074 26.3236 66.2969 26.3236 66.3945 26.3887C66.5085 26.4375 66.6468 26.5677 66.8096 26.7793C67.1025 26.7793 67.4443 26.763 67.835 26.7305C68.2256 26.6979 68.6325 26.641 69.0557 26.5596C69.4788 26.4782 69.8939 26.3724 70.3008 26.2422C70.724 26.112 71.0902 25.9411 71.3994 25.7295C71.7249 25.5016 71.9854 25.2412 72.1807 24.9482C72.376 24.639 72.4736 24.2809 72.4736 23.874C72.4736 23.4671 72.2865 23.166 71.9121 22.9707C71.5378 22.7754 71.0576 22.6289 70.4717 22.5312C69.902 22.4173 69.2835 22.3115 68.6162 22.2139C67.9652 22.0999 67.3548 21.9372 66.7852 21.7256C66.2155 21.4977 65.7354 21.1803 65.3447 20.7734C64.9704 20.3503 64.7832 19.7643 64.7832 19.0156C64.7832 18.4948 64.8727 18.0553 65.0518 17.6973C65.2308 17.3392 65.5319 17.0055 65.9551 16.6963C66.1341 16.5498 66.4515 16.3219 66.9072 16.0127C67.363 15.6872 67.8431 15.3454 68.3477 14.9873C68.8685 14.613 69.3568 14.2712 69.8125 13.9619C70.2682 13.6364 70.5856 13.4085 70.7646 13.2783C70.7972 13.2783 70.8379 13.2783 70.8867 13.2783C70.9518 13.262 71.0007 13.2539 71.0332 13.2539C71.4401 13.2539 71.6436 13.4492 71.6436 13.8398C71.6436 14.0189 71.4971 14.2142 71.2041 14.4258C70.9111 14.6211 70.5368 14.8408 70.0811 15.085C69.6416 15.3291 69.1615 15.5895 68.6406 15.8662C68.1361 16.1429 67.6559 16.4521 67.2002 16.7939C66.7607 17.1195 66.3945 17.4775 66.1016 17.8682C65.8086 18.2425 65.6621 18.6494 65.6621 19.0889C65.6621 19.5609 65.776 19.9027 66.0039 20.1143C66.248 20.3258 66.6061 20.5049 67.0781 20.6514C67.2734 20.7002 67.6071 20.7979 68.0791 20.9443C68.5674 21.0745 69.0801 21.221 69.6172 21.3838C70.1706 21.5303 70.6833 21.6686 71.1553 21.7988C71.6436 21.929 71.9854 22.0186 72.1807 22.0674C72.6038 22.2952 72.9456 22.5475 73.2061 22.8242C73.4827 23.0846 73.6211 23.4508 73.6211 23.9229C73.6211 24.3786 73.499 24.7936 73.2549 25.168C73.027 25.5423 72.7178 25.8841 72.3271 26.1934C71.9528 26.4863 71.5133 26.7549 71.0088 26.999C70.5205 27.2269 70.0241 27.4222 69.5195 27.585C69.015 27.7314 68.5186 27.8454 68.0303 27.9268C67.5583 27.9919 67.1351 28.0244 66.7607 28.0244C66.4027 28.0244 66.1748 27.9756 66.0771 27.8779C65.9795 27.764 65.9307 27.528 65.9307 27.1699ZM74.5244 9.20117L75.5742 9.03027L76.6973 22.3359C76.8112 21.7826 76.9821 21.1803 77.21 20.5293C77.4378 19.8783 77.7389 19.2842 78.1133 18.7471C78.5039 18.21 78.9759 17.7949 79.5293 17.502C80.099 17.1927 80.7581 17.1113 81.5068 17.2578C82.0277 17.3392 82.4753 17.5426 82.8496 17.8682C83.2402 18.1774 83.5739 18.5599 83.8506 19.0156C84.1273 19.4714 84.347 19.9759 84.5098 20.5293C84.6888 21.0664 84.8271 21.6198 84.9248 22.1895C85.0225 22.7428 85.0876 23.2799 85.1201 23.8008C85.1689 24.3216 85.1934 24.7773 85.1934 25.168C85.1934 25.5098 85.1608 25.7458 85.0957 25.876C85.0469 25.9899 84.9004 26.0469 84.6562 26.0469C84.5423 26.0469 84.4284 26.0387 84.3145 26.0225C84.2005 25.9899 84.1191 25.8923 84.0703 25.7295C84.1029 25.4202 84.1191 25.0133 84.1191 24.5088C84.1191 24.0042 84.0866 23.4834 84.0215 22.9463C83.9727 22.4092 83.8831 21.8721 83.7529 21.335C83.6227 20.7816 83.4355 20.2852 83.1914 19.8457C82.9635 19.4062 82.6624 19.0563 82.2881 18.7959C81.9137 18.5192 81.4661 18.3809 80.9453 18.3809C80.4082 18.3809 79.9362 18.5029 79.5293 18.7471C79.1387 18.9749 78.805 19.276 78.5283 19.6504C78.2679 20.0247 78.0563 20.4479 77.8936 20.9199C77.7308 21.3757 77.6169 21.8477 77.5518 22.3359C77.5518 22.4661 77.5355 22.6777 77.5029 22.9707C77.4867 23.2474 77.4622 23.5648 77.4297 23.9229C77.3971 24.2646 77.3727 24.639 77.3564 25.0459C77.3402 25.4365 77.3239 25.8109 77.3076 26.1689C77.2913 26.5107 77.2751 26.82 77.2588 27.0967C77.2588 27.3734 77.2588 27.5768 77.2588 27.707C77.21 27.8698 77.1367 27.9674 77.0391 28C76.9414 28.0163 76.8275 28.0244 76.6973 28.0244C76.681 28.0244 76.6322 28.0163 76.5508 28C76.4857 28 76.4368 28 76.4043 28L74.5244 9.20117ZM99.8418 27.1455C99.9395 26.7386 100.053 26.2829 100.184 25.7783C100.33 25.2575 100.46 24.7122 100.574 24.1426C100.688 23.5729 100.786 23.0033 100.867 22.4336C100.965 21.8477 101.014 21.2943 101.014 20.7734C101.014 20.3991 100.916 20.0898 100.721 19.8457C100.525 19.6016 100.273 19.3818 99.9639 19.1865C99.6709 18.9912 99.3454 18.8122 98.9873 18.6494C98.6455 18.4704 98.32 18.2913 98.0107 18.1123C97.7178 17.917 97.4736 17.7135 97.2783 17.502C97.083 17.2741 96.9854 17.0055 96.9854 16.6963C96.9854 16.6637 96.9854 16.6149 96.9854 16.5498C97.0016 16.4847 97.0098 16.4359 97.0098 16.4033C97.2865 16.1104 97.6283 15.736 98.0352 15.2803C98.4583 14.8245 98.9059 14.3851 99.3779 13.9619C99.8662 13.5387 100.371 13.1807 100.892 12.8877C101.412 12.5785 101.917 12.4238 102.405 12.4238C102.438 12.4238 102.495 12.4645 102.576 12.5459C102.658 12.6273 102.698 12.6924 102.698 12.7412V13.9863C102.698 14.8815 102.641 15.7686 102.527 16.6475C102.43 17.5264 102.381 18.4134 102.381 19.3086V19.7725C102.381 19.9678 102.389 20.0736 102.405 20.0898L104.676 22.3359C104.676 22.3522 104.7 22.3685 104.749 22.3848C104.814 22.3848 104.863 22.3848 104.896 22.3848C105.107 22.3848 105.294 22.3359 105.457 22.2383C105.62 22.1406 105.774 22.0348 105.921 21.9209C106.084 21.807 106.238 21.7012 106.385 21.6035C106.548 21.5059 106.727 21.457 106.922 21.457C107.329 21.457 107.532 21.6605 107.532 22.0674C107.532 22.2952 107.459 22.458 107.312 22.5557C107.182 22.6533 107.02 22.7428 106.824 22.8242C106.645 22.9056 106.45 22.9951 106.238 23.0928C106.043 23.1742 105.896 23.3044 105.799 23.4834L107.776 25.4609C107.809 25.4772 107.785 25.5586 107.703 25.7051C107.638 25.8516 107.565 25.9574 107.483 26.0225C107.483 26.0387 107.435 26.0469 107.337 26.0469H107.239C107.223 26.0469 107.215 26.0387 107.215 26.0225C107.133 25.9574 107.003 25.8434 106.824 25.6807C106.645 25.5179 106.45 25.347 106.238 25.168C106.027 24.9727 105.823 24.7936 105.628 24.6309C105.449 24.4681 105.319 24.3623 105.237 24.3135C105.205 24.2809 105.115 24.2321 104.969 24.167C104.822 24.1019 104.725 24.0612 104.676 24.0449C104.529 24.1426 104.334 24.3135 104.09 24.5576C103.846 24.8018 103.577 25.0703 103.284 25.3633C103.007 25.6562 102.715 25.9655 102.405 26.291C102.112 26.6003 101.827 26.8851 101.551 27.1455C101.274 27.3896 101.022 27.6012 100.794 27.7803C100.566 27.943 100.387 28.0244 100.257 28.0244H100.184C100.167 28.0244 100.151 28.0163 100.135 28C100.118 27.9674 100.094 27.9105 100.062 27.8291C100.029 27.7477 99.9964 27.6663 99.9639 27.585C99.9313 27.5036 99.8988 27.4222 99.8662 27.3408C99.8499 27.2594 99.8418 27.1943 99.8418 27.1455ZM98.6943 16.6963C99.085 17.1195 99.4919 17.5182 99.915 17.8926C100.354 18.2669 100.81 18.6087 101.282 18.918C101.299 18.7715 101.331 18.5029 101.38 18.1123C101.429 17.7054 101.478 17.2741 101.526 16.8184C101.591 16.3626 101.648 15.9395 101.697 15.5488C101.762 15.1419 101.811 14.8652 101.844 14.7188V14.5479C101.844 14.3851 101.811 14.2305 101.746 14.084C101.697 13.9212 101.591 13.8398 101.429 13.8398C101.168 13.8398 100.875 13.9456 100.55 14.1572C100.241 14.3525 99.9476 14.5967 99.6709 14.8896C99.4105 15.1826 99.1826 15.4919 98.9873 15.8174C98.792 16.1429 98.6943 16.4359 98.6943 16.6963ZM102.112 21.2129C101.884 21.4733 101.714 21.7744 101.6 22.1162C101.486 22.458 101.404 22.8079 101.355 23.166C101.307 23.5241 101.274 23.8903 101.258 24.2646C101.258 24.639 101.258 24.9889 101.258 25.3145C101.258 25.347 101.258 25.4202 101.258 25.5342C101.274 25.6481 101.282 25.7132 101.282 25.7295L104.09 23.1904L102.112 21.2129ZM119.983 18.918C119.983 18.8203 119.983 18.7064 119.983 18.5762C120 18.446 120.016 18.3239 120.032 18.21C120.065 18.0798 120.122 17.974 120.203 17.8926C120.285 17.8112 120.398 17.7705 120.545 17.7705C120.577 17.7705 120.626 17.7786 120.691 17.7949C120.773 17.7949 120.83 17.7949 120.862 17.7949C120.879 18.9505 120.936 20.1387 121.033 21.3594C121.147 22.5801 121.367 23.7601 121.692 24.8994C121.709 24.7204 121.749 24.4193 121.814 23.9961C121.896 23.5566 121.977 23.1009 122.059 22.6289C122.156 22.1406 122.246 21.6849 122.327 21.2617C122.425 20.8385 122.49 20.5374 122.522 20.3584C122.636 20.0166 122.791 19.6667 122.986 19.3086C123.182 18.9342 123.418 18.5924 123.694 18.2832C123.987 17.974 124.305 17.7217 124.646 17.5264C125.005 17.3311 125.379 17.2334 125.77 17.2334C126.421 17.2334 126.998 17.3799 127.503 17.6729C128.007 17.9658 128.455 18.3564 128.846 18.8447C129.253 19.3167 129.594 19.862 129.871 20.4805C130.148 21.0827 130.376 21.7012 130.555 22.3359C130.734 22.9707 130.864 23.5811 130.945 24.167C131.027 24.7529 131.067 25.2738 131.067 25.7295V26.0225C131.067 26.1201 131.051 26.2178 131.019 26.3154C131.002 26.3968 130.962 26.4701 130.896 26.5352C130.848 26.584 130.75 26.6084 130.604 26.6084C130.441 26.6084 130.302 26.5107 130.188 26.3154C130.172 25.9085 130.123 25.4365 130.042 24.8994C129.977 24.3623 129.879 23.8008 129.749 23.2148C129.635 22.6126 129.472 22.0267 129.261 21.457C129.065 20.8711 128.813 20.3503 128.504 19.8945C128.211 19.4388 127.861 19.0726 127.454 18.7959C127.047 18.5029 126.559 18.3564 125.989 18.3564C125.534 18.3564 125.135 18.4378 124.793 18.6006C124.467 18.7633 124.191 18.9912 123.963 19.2842C123.735 19.5609 123.548 19.8945 123.401 20.2852C123.271 20.6595 123.174 21.0664 123.108 21.5059C123.06 21.7337 122.994 22.1406 122.913 22.7266C122.832 23.3125 122.742 23.9391 122.645 24.6064C122.547 25.2738 122.457 25.9004 122.376 26.4863C122.311 27.0723 122.27 27.4792 122.254 27.707C122.205 27.8698 122.116 27.9674 121.985 28C121.871 28.0326 121.749 28.0488 121.619 28.0488C121.603 28.0488 121.562 28.0407 121.497 28.0244C121.432 28.0244 121.399 28.0163 121.399 28L120.008 19.5283C120.008 19.4958 120 19.4062 119.983 19.2598C119.983 19.1133 119.983 18.9993 119.983 18.918ZM132.117 25.4609C132.117 24.9889 132.166 24.403 132.264 23.7031C132.378 23.0033 132.532 22.279 132.728 21.5303C132.939 20.7653 133.2 20.0003 133.509 19.2354C133.834 18.4704 134.201 17.7868 134.607 17.1846C135.014 16.5661 135.478 16.0697 135.999 15.6953C136.52 15.321 137.09 15.1338 137.708 15.1338C137.708 15.3617 137.61 15.5895 137.415 15.8174C137.236 16.029 137.024 16.2406 136.78 16.4521C136.552 16.6475 136.316 16.8428 136.072 17.0381C135.828 17.2171 135.657 17.388 135.56 17.5508C135.169 18.0553 134.819 18.6169 134.51 19.2354C134.201 19.8376 133.932 20.4642 133.704 21.1152C133.476 21.75 133.297 22.4092 133.167 23.0928C133.037 23.7601 132.972 24.4111 132.972 25.0459C132.972 25.1436 132.988 25.2982 133.021 25.5098C133.053 25.7051 133.094 25.9085 133.143 26.1201C133.208 26.3317 133.289 26.5189 133.387 26.6816C133.484 26.8281 133.59 26.9014 133.704 26.9014H133.777C133.794 26.9014 133.81 26.8932 133.826 26.877C134.266 26.3887 134.632 25.8597 134.925 25.29C135.218 24.7204 135.47 24.1344 135.682 23.5322C135.893 22.9137 136.072 22.2871 136.219 21.6523C136.365 21.0176 136.512 20.391 136.658 19.7725C136.707 19.5934 136.723 19.3249 136.707 18.9668C136.707 18.6087 136.723 18.2588 136.756 17.917C136.805 17.5752 136.894 17.2822 137.024 17.0381C137.155 16.7777 137.391 16.6475 137.732 16.6475C137.798 16.6475 137.871 16.6556 137.952 16.6719C138.05 16.6719 138.099 16.68 138.099 16.6963C138.701 17.9495 139.214 19.0156 139.637 19.8945C140.06 20.7572 140.418 21.4733 140.711 22.043C141.004 22.6126 141.24 23.0602 141.419 23.3857C141.598 23.7113 141.728 23.9635 141.81 24.1426C141.907 24.3053 141.972 24.4193 142.005 24.4844C142.037 24.5332 142.054 24.5739 142.054 24.6064C142.07 24.6715 142.086 24.7936 142.103 24.9727C142.119 25.1354 142.127 25.3145 142.127 25.5098C142.143 25.6888 142.151 25.8678 142.151 26.0469C142.168 26.2096 142.176 26.3154 142.176 26.3643C142.013 26.3643 141.834 26.3561 141.639 26.3398C141.443 26.3236 141.305 26.2178 141.224 26.0225L138.099 19.5283L137.83 19.2354C137.781 19.4144 137.684 19.7318 137.537 20.1875C137.407 20.6432 137.26 21.1315 137.098 21.6523C136.951 22.1569 136.813 22.637 136.683 23.0928C136.552 23.5485 136.463 23.8659 136.414 24.0449C136.316 24.2891 136.186 24.6309 136.023 25.0703C135.877 25.5098 135.69 25.9492 135.462 26.3887C135.234 26.8281 134.974 27.2106 134.681 27.5361C134.388 27.8617 134.062 28.0244 133.704 28.0244C133.411 28.0244 133.167 27.9349 132.972 27.7559C132.776 27.5605 132.614 27.3245 132.483 27.0479C132.353 26.7712 132.256 26.4863 132.19 26.1934C132.142 25.9004 132.117 25.6562 132.117 25.4609ZM146.937 20.3584C146.578 20.3584 146.22 20.4072 145.862 20.5049C145.504 20.6025 145.146 20.7083 144.788 20.8223C144.446 20.9199 144.096 21.0176 143.738 21.1152C143.396 21.1966 143.038 21.2373 142.664 21.2373C142.452 21.2373 142.282 21.1966 142.151 21.1152C142.021 21.0339 141.956 20.8711 141.956 20.627C141.956 20.4316 142.005 20.3014 142.103 20.2363C142.216 20.1549 142.347 20.1143 142.493 20.1143C142.656 20.098 142.819 20.098 142.981 20.1143C143.16 20.1305 143.299 20.1224 143.396 20.0898C143.527 20.0573 143.763 20.0003 144.104 19.9189C144.463 19.8376 144.837 19.7562 145.228 19.6748C145.618 19.5934 145.984 19.512 146.326 19.4307C146.684 19.3493 146.928 19.2842 147.059 19.2354C147.059 19.1865 147.059 19.1051 147.059 18.9912C147.075 18.861 147.083 18.7308 147.083 18.6006C147.099 18.4541 147.107 18.3239 147.107 18.21V17.9414C147.107 17.4531 147.075 16.9811 147.01 16.5254C146.945 16.0534 146.871 15.5814 146.79 15.1094C146.725 14.6374 146.66 14.1654 146.595 13.6934C146.53 13.2214 146.497 12.7493 146.497 12.2773C146.497 12.1146 146.513 11.96 146.546 11.8135C146.595 11.6507 146.725 11.5693 146.937 11.5693C147.018 11.5693 147.099 11.5938 147.181 11.6426C147.278 11.6751 147.335 11.7484 147.352 11.8623L148.206 18.918C148.222 18.9342 148.239 18.9424 148.255 18.9424H148.328C148.491 18.9424 148.743 18.9017 149.085 18.8203C149.427 18.7389 149.809 18.6413 150.232 18.5273C150.656 18.4134 151.103 18.2913 151.575 18.1611C152.063 18.0309 152.527 17.917 152.967 17.8193C153.406 17.7054 153.805 17.624 154.163 17.5752C154.521 17.5101 154.798 17.502 154.993 17.5508C155.058 17.5671 155.164 17.6484 155.311 17.7949C155.457 17.9251 155.547 18.0228 155.579 18.0879C155.612 18.2507 155.473 18.4134 155.164 18.5762C154.855 18.7227 154.448 18.8691 153.943 19.0156C153.455 19.1458 152.91 19.2679 152.308 19.3818C151.705 19.4958 151.128 19.6016 150.574 19.6992C150.037 19.7806 149.573 19.862 149.183 19.9434C148.792 20.0085 148.556 20.0573 148.475 20.0898V20.5781C148.475 20.7897 148.466 21.0257 148.45 21.2861C148.45 21.5303 148.45 21.7663 148.45 21.9941V22.4824C148.45 23.3125 148.507 24.1263 148.621 24.9238C148.735 25.7051 148.792 26.4945 148.792 27.292C148.792 27.4059 148.759 27.5036 148.694 27.585C148.629 27.6501 148.548 27.7152 148.45 27.7803C148.353 27.8291 148.255 27.8779 148.157 27.9268C148.06 27.9593 147.986 27.9837 147.938 28C147.807 27.3001 147.71 26.6654 147.645 26.0957C147.596 25.5098 147.555 24.932 147.522 24.3623C147.506 23.7926 147.482 23.1904 147.449 22.5557C147.433 21.9046 147.4 21.1722 147.352 20.3584H146.937ZM156.775 28C156.466 28.1139 156.181 28.0895 155.921 27.9268C155.677 27.7477 155.457 27.4873 155.262 27.1455C155.066 26.7874 154.896 26.3887 154.749 25.9492C154.603 25.4935 154.489 25.0459 154.407 24.6064C154.326 24.167 154.269 23.7682 154.236 23.4102C154.22 23.0521 154.228 22.7917 154.261 22.6289C154.261 22.4661 154.269 22.2139 154.285 21.8721C154.301 21.5303 154.318 21.1478 154.334 20.7246C154.35 20.2852 154.367 19.8376 154.383 19.3818C154.415 18.9098 154.44 18.4541 154.456 18.0146C154.472 17.5752 154.489 17.1927 154.505 16.8672C154.521 16.5254 154.529 16.2731 154.529 16.1104C154.562 16.1104 154.586 16.1022 154.603 16.0859L154.676 16.0615C154.839 16.0615 154.977 16.1348 155.091 16.2812C155.205 16.4277 155.302 16.5661 155.384 16.6963C155.384 16.9242 155.376 17.3311 155.359 17.917C155.359 18.5029 155.359 19.1296 155.359 19.7969C155.359 20.4642 155.359 21.099 155.359 21.7012C155.376 22.2871 155.384 22.694 155.384 22.9219C155.4 23.1172 155.433 23.4264 155.481 23.8496C155.547 24.2565 155.628 24.6797 155.726 25.1191C155.823 25.5423 155.953 25.9329 156.116 26.291C156.295 26.6328 156.515 26.8281 156.775 26.877C157.459 26.877 158.029 26.6247 158.484 26.1201C158.956 25.6156 159.347 24.9808 159.656 24.2158C159.965 23.4508 160.21 22.6289 160.389 21.75C160.584 20.8548 160.747 20.0166 160.877 19.2354C161.007 18.4541 161.121 17.8031 161.219 17.2822C161.333 16.7451 161.463 16.4521 161.609 16.4033L162.195 16.5254L163.562 25.9736C163.66 26.0225 163.742 26.0957 163.807 26.1934C163.872 26.291 163.929 26.3968 163.978 26.5107C164.043 26.6247 164.083 26.7386 164.1 26.8525C164.132 26.9665 164.148 27.0479 164.148 27.0967C164.116 27.2106 164.018 27.3327 163.855 27.4629C163.693 27.5931 163.554 27.6663 163.44 27.6826H163.343C163.326 27.6826 163.31 27.6826 163.294 27.6826C163.261 27.6338 163.213 27.5605 163.147 27.4629C163.099 27.349 163.042 27.235 162.977 27.1211C162.911 27.0072 162.854 26.8932 162.806 26.7793C162.773 26.6491 162.749 26.5677 162.732 26.5352C162.684 26.3724 162.627 26.1201 162.562 25.7783C162.513 25.4365 162.464 25.0622 162.415 24.6553C162.366 24.2321 162.317 23.7926 162.269 23.3369C162.236 22.8649 162.195 22.4173 162.146 21.9941C162.114 21.5547 162.073 21.1722 162.024 20.8467C161.992 20.5049 161.951 20.2526 161.902 20.0898C161.821 20.4642 161.707 20.9118 161.561 21.4326C161.414 21.9372 161.227 22.4743 160.999 23.0439C160.787 23.6136 160.543 24.1751 160.267 24.7285C159.99 25.2656 159.673 25.7702 159.314 26.2422C158.973 26.6979 158.59 27.0885 158.167 27.4141C157.744 27.7233 157.28 27.9186 156.775 28ZM165.467 18.6738L166.907 24.6064H167.2C167.249 24.0856 167.339 23.5322 167.469 22.9463C167.615 22.3604 167.811 21.7826 168.055 21.2129C168.299 20.627 168.584 20.0654 168.909 19.5283C169.251 18.9912 169.633 18.5192 170.057 18.1123C170.48 17.7054 170.952 17.3799 171.473 17.1357C172.01 16.8916 172.596 16.7695 173.23 16.7695C173.23 17.1602 173.068 17.502 172.742 17.7949C172.433 18.0879 172.059 18.3727 171.619 18.6494C171.18 18.9261 170.724 19.2191 170.252 19.5283C169.796 19.8376 169.438 20.2119 169.178 20.6514C168.901 21.0908 168.673 21.6035 168.494 22.1895C168.331 22.7591 168.193 23.3532 168.079 23.9717C167.981 24.5739 167.908 25.1842 167.859 25.8027C167.811 26.4049 167.77 26.9502 167.737 27.4385C167.64 27.585 167.534 27.7233 167.42 27.8535C167.322 27.9674 167.192 28.0244 167.029 28.0244C166.964 28.0244 166.883 28.0081 166.785 27.9756C166.688 27.9268 166.622 27.8372 166.59 27.707L164.832 18.6738H165.467ZM173.792 25.4609C173.792 24.9889 173.841 24.403 173.938 23.7031C174.052 23.0033 174.207 22.279 174.402 21.5303C174.614 20.7653 174.874 20.0003 175.184 19.2354C175.509 18.4704 175.875 17.7868 176.282 17.1846C176.689 16.5661 177.153 16.0697 177.674 15.6953C178.195 15.321 178.764 15.1338 179.383 15.1338C179.383 15.3617 179.285 15.5895 179.09 15.8174C178.911 16.029 178.699 16.2406 178.455 16.4521C178.227 16.6475 177.991 16.8428 177.747 17.0381C177.503 17.2171 177.332 17.388 177.234 17.5508C176.844 18.0553 176.494 18.6169 176.185 19.2354C175.875 19.8376 175.607 20.4642 175.379 21.1152C175.151 21.75 174.972 22.4092 174.842 23.0928C174.712 23.7601 174.646 24.4111 174.646 25.0459C174.646 25.1436 174.663 25.2982 174.695 25.5098C174.728 25.7051 174.769 25.9085 174.817 26.1201C174.882 26.3317 174.964 26.5189 175.062 26.6816C175.159 26.8281 175.265 26.9014 175.379 26.9014H175.452C175.468 26.9014 175.485 26.8932 175.501 26.877C175.94 26.3887 176.307 25.8597 176.6 25.29C176.893 24.7204 177.145 24.1344 177.356 23.5322C177.568 22.9137 177.747 22.2871 177.894 21.6523C178.04 21.0176 178.187 20.391 178.333 19.7725C178.382 19.5934 178.398 19.3249 178.382 18.9668C178.382 18.6087 178.398 18.2588 178.431 17.917C178.479 17.5752 178.569 17.2822 178.699 17.0381C178.829 16.7777 179.065 16.6475 179.407 16.6475C179.472 16.6475 179.546 16.6556 179.627 16.6719C179.725 16.6719 179.773 16.68 179.773 16.6963C180.376 17.9495 180.888 19.0156 181.312 19.8945C181.735 20.7572 182.093 21.4733 182.386 22.043C182.679 22.6126 182.915 23.0602 183.094 23.3857C183.273 23.7113 183.403 23.9635 183.484 24.1426C183.582 24.3053 183.647 24.4193 183.68 24.4844C183.712 24.5332 183.729 24.5739 183.729 24.6064C183.745 24.6715 183.761 24.7936 183.777 24.9727C183.794 25.1354 183.802 25.3145 183.802 25.5098C183.818 25.6888 183.826 25.8678 183.826 26.0469C183.842 26.2096 183.851 26.3154 183.851 26.3643C183.688 26.3643 183.509 26.3561 183.313 26.3398C183.118 26.3236 182.98 26.2178 182.898 26.0225L179.773 19.5283L179.505 19.2354C179.456 19.4144 179.358 19.7318 179.212 20.1875C179.082 20.6432 178.935 21.1315 178.772 21.6523C178.626 22.1569 178.488 22.637 178.357 23.0928C178.227 23.5485 178.138 23.8659 178.089 24.0449C177.991 24.2891 177.861 24.6309 177.698 25.0703C177.552 25.5098 177.365 25.9492 177.137 26.3887C176.909 26.8281 176.648 27.2106 176.355 27.5361C176.062 27.8617 175.737 28.0244 175.379 28.0244C175.086 28.0244 174.842 27.9349 174.646 27.7559C174.451 27.5605 174.288 27.3245 174.158 27.0479C174.028 26.7712 173.93 26.4863 173.865 26.1934C173.816 25.9004 173.792 25.6562 173.792 25.4609ZM184.778 27.4385C184.762 27.0153 184.721 26.3643 184.656 25.4854C184.591 24.5902 184.518 23.5892 184.437 22.4824C184.371 21.3594 184.298 20.1875 184.217 18.9668C184.152 17.7298 184.078 16.5498 183.997 15.4268C183.932 14.3037 183.859 13.3027 183.777 12.4238C183.712 11.5286 183.672 10.8695 183.655 10.4463V10.1289C183.655 9.75456 183.842 9.56738 184.217 9.56738C184.249 9.56738 184.298 9.57552 184.363 9.5918C184.428 9.5918 184.477 9.5918 184.51 9.5918C184.607 11.0078 184.697 12.3669 184.778 13.6689C184.86 14.971 184.941 16.265 185.022 17.5508C185.104 18.8366 185.193 20.1305 185.291 21.4326C185.389 22.7184 185.503 24.0612 185.633 25.4609C185.812 25.64 185.91 25.8516 185.926 26.0957C185.942 26.3236 185.95 26.5596 185.95 26.8037C185.95 26.9176 185.942 27.0479 185.926 27.1943C185.926 27.3245 185.901 27.4548 185.853 27.585C185.804 27.6989 185.722 27.8047 185.608 27.9023C185.511 27.9837 185.381 28.0244 185.218 28.0244C185.071 28.0244 184.965 27.9674 184.9 27.8535C184.852 27.7396 184.811 27.6012 184.778 27.4385Z" fill="#9A9A9A"/>
</svg>
